<?xml version="1.0" standalone="no"?>
<!DOCTYPE svg PUBLIC "-//W3C//DTD SVG 1.1//EN" "http://www.w3.org/Graphics/SVG/1.1/DTD/svg11.dtd" >
<svg xmlns="http://www.w3.org/2000/svg" xmlns:xlink="http://www.w3.org/1999/xlink" version="1.1">
<metadata>
Created by FontForge 20190801 at Mon Apr 13 09:39:29 2020
 By www-data
</metadata>
<defs>
<font id="GraphikCompLCWebLight-Regular" horiz-adv-x="400" >
  <font-face 
    font-family="Graphik Compact Light"
    font-weight="300"
    font-stretch="normal"
    units-per-em="1000"
    panose-1="1 0 2 1 1 0 0 1 0 1"
    ascent="800"
    descent="-200"
    x-height="523"
    cap-height="715"
    bbox="-34 -198 845 1052"
    underline-thickness="66"
    underline-position="-158"
    unicode-range="U+0020-2013"
  />
<missing-glyph horiz-adv-x="191" 
 />
    <glyph glyph-name="_241" unicode="ff" horiz-adv-x="514" 
d="M88 480h-67v43h67v97q0 71 34.5 104.5t93.5 33.5q27 0 45 -7v-42q-8 3 -19 5t-23 2q-37 0 -58.5 -22t-21.5 -72v-99h183v104q0 71 34.5 105t93.5 34q14 0 25 -2t21 -5v-42q-8 2 -19 4t-23 2q-38 0 -60 -22t-22 -71v-107h119v-43h-119v-480h-50v480h-183v-480h-51v480z
" />
    <glyph glyph-name=".notdef" horiz-adv-x="191" 
 />
    <glyph glyph-name=".null" horiz-adv-x="0" 
 />
    <glyph glyph-name="nonmarkingreturn" horiz-adv-x="333" 
 />
    <glyph glyph-name="space" unicode=" " horiz-adv-x="191" 
 />
    <glyph glyph-name="exclam" unicode="!" horiz-adv-x="225" 
d="M85 715h56l-9 -549h-39zM113 -4q-17 0 -28 11t-11 27t11 27.5t28 11.5q15 0 26.5 -11.5t11.5 -27.5t-11.5 -27t-26.5 -11z" />
    <glyph glyph-name="comma" unicode="," horiz-adv-x="191" 
d="M26 -91l63 169l49 -20l-79 -164z" />
    <glyph glyph-name="hyphen" unicode="-" horiz-adv-x="284" 
d="M51 302h182v-47h-182v47z" />
    <glyph glyph-name="period" unicode="." horiz-adv-x="191" 
d="M96 -4q-16 0 -27.5 11t-11.5 27t11.5 27.5t27.5 11.5t27 -11.5t11 -27.5t-11 -27t-27 -11z" />
    <glyph glyph-name="zero" unicode="0" horiz-adv-x="542" 
d="M273 -8q-104 0 -164 69.5t-60 198.5v195q0 129 59 198.5t163 69.5q51 0 92.5 -18t70.5 -52.5t44.5 -84t15.5 -112.5v-194q0 -128 -57.5 -199t-163.5 -71zM273 37q82 0 124.5 55.5t42.5 170.5v194q0 106 -44.5 164t-124.5 58q-81 0 -124.5 -56.5t-43.5 -167.5v-194
q0 -115 44.5 -169.5t125.5 -54.5z" />
    <glyph glyph-name="one" unicode="1" horiz-adv-x="308" 
d="M157 658l-132 -99v51l139 105h46v-715h-53v658z" />
    <glyph glyph-name="two" unicode="2" horiz-adv-x="455" 
d="M20 12l224 280q53 67 79.5 123.5t26.5 118.5v12q0 67 -33.5 100t-90.5 33t-93 -36t-42 -115h-50q4 93 53.5 144t131.5 51q81 0 129 -45.5t48 -131.5v-13q0 -70 -30 -133.5t-90 -135.5l-181 -220h308v-44h-390v12z" />
    <glyph glyph-name="three" unicode="3" horiz-adv-x="476" 
d="M429 179q0 -91 -51.5 -139t-142.5 -48q-94 0 -146.5 52.5t-54.5 139.5h49q4 -67 41 -107t111 -40q141 0 141 143v30q0 71 -32.5 108t-107.5 37h-38v44h37q67 0 95 35.5t28 91.5v23q0 61 -31 95.5t-91 34.5q-61 0 -95 -36t-39 -99h-49q1 39 14.5 72t37.5 57t57 37t74 13
q82 0 128 -47t46 -127v-23q0 -58 -27 -95.5t-77 -51.5q57 -12 90 -54t33 -114v-32v0z" />
    <glyph glyph-name="four" unicode="4" horiz-adv-x="504" 
d="M333 171h-305v15l286 529h71v-501h86v-43h-86v-171h-52v171zM333 214v374l1 83l-36 -72l-206 -385h241z" />
    <glyph glyph-name="five" unicode="5" horiz-adv-x="470" 
d="M229 -8q-46 0 -81.5 13t-60 36.5t-37.5 56t-15 71.5h50q6 -59 39 -96t104 -37q69 0 105 44t36 125v44q0 79 -38 121.5t-102 42.5q-54 0 -87.5 -17.5t-58.5 -45.5h-17v365h328v-46h-283v-261q20 19 51.5 33.5t79.5 14.5q39 0 72.5 -13.5t58 -40t38 -65t13.5 -88.5v-45
q0 -102 -54 -157t-141 -55z" />
    <glyph glyph-name="six" unicode="6" horiz-adv-x="498" 
d="M259 -8q-54 0 -93.5 17.5t-65 49t-37.5 75.5t-12 96v200q0 76 16 131.5t45 91.5t68.5 53t86.5 17q73 0 120 -38.5t55 -118.5h-50q-8 56 -38.5 84t-88.5 28q-35 0 -64.5 -13.5t-50.5 -42.5t-33.5 -75t-12.5 -110v-92q20 49 65 75.5t100 26.5q89 0 139 -54t50 -142v-58
q0 -94 -53.5 -147.5t-145.5 -53.5zM259 35q68 0 106.5 42.5t38.5 114.5v58q0 71 -36.5 112.5t-110.5 41.5q-31 0 -58.5 -10t-48 -29.5t-32.5 -49t-12 -67.5v-37q0 -84 38 -130t115 -46z" />
    <glyph glyph-name="seven" unicode="7" horiz-adv-x="426" 
d="M343 671h-317v44h381v-8l-228 -707h-54z" />
    <glyph glyph-name="eight" unicode="8" horiz-adv-x="489" 
d="M245 -8q-40 0 -76.5 11.5t-64 35t-44 58.5t-16.5 83v39q0 70 37 112t93 56q-47 14 -77.5 51t-30.5 97v19q0 41 14.5 72.5t39.5 53t57 32.5t68 11t68.5 -11t56.5 -32.5t38.5 -52.5t14.5 -71v-20q0 -61 -30 -97.5t-78 -51.5q58 -15 93.5 -56.5t35.5 -110.5v-38
q0 -48 -16 -83.5t-43 -59t-63 -35.5t-77 -12zM247 407q54 0 88 32t34 97v19q0 60 -34.5 92.5t-89.5 32.5q-57 0 -91 -32t-34 -94v-20q0 -32 10 -55.5t27 -39.5t40.5 -24t49.5 -8zM245 37q65 0 105 36t40 111v37q0 36 -11 63t-30.5 45t-45.5 27t-57 9t-57.5 -9t-46.5 -27
t-31.5 -45.5t-11.5 -63.5v-38q0 -74 41.5 -109.5t104.5 -35.5z" />
    <glyph glyph-name="nine" unicode="9" horiz-adv-x="497" 
d="M241 -8q-78 0 -130.5 41t-60.5 124h51q7 -60 43.5 -90t97.5 -30q36 0 64 11.5t47.5 37.5t30 69.5t10.5 107.5v104q-20 -48 -64.5 -73t-99.5 -25q-88 0 -138.5 53t-50.5 142v56q0 96 53.5 149.5t147.5 53.5q52 0 90.5 -17t64 -47.5t38 -74t12.5 -95.5v-224q0 -74 -14 -126
t-41 -84.5t-65 -47.5t-86 -15zM242 680q-71 0 -109.5 -43t-38.5 -115v-57q0 -70 36.5 -112t108.5 -42q32 0 60 10t48.5 29t32.5 46.5t12 62.5v48q0 79 -37 126t-113 47z" />
    <glyph glyph-name="colon" unicode=":" horiz-adv-x="197" 
d="M99 321q-16 0 -27.5 11t-11.5 28q0 16 11.5 27t27.5 11t27 -11t11 -27q0 -17 -11 -28t-27 -11zM99 -4q-16 0 -27.5 11t-11.5 27t11.5 27.5t27.5 11.5t27 -11.5t11 -27.5t-11 -27t-27 -11z" />
    <glyph glyph-name="semicolon" unicode=";" horiz-adv-x="197" 
d="M103 321q-16 0 -27.5 11t-11.5 28q0 16 11.5 27t27.5 11t27 -11t11 -27q0 -17 -11 -28t-27 -11zM18 -91l63 169l50 -20l-80 -164z" />
    <glyph glyph-name="question" unicode="?" horiz-adv-x="406" 
d="M156 235q0 30 6 53t16.5 43t26 40t35.5 43q16 19 29 35.5t22.5 34.5t15 38t5.5 46q0 57 -28.5 84.5t-79.5 27.5q-55 0 -87.5 -33.5t-36.5 -99.5h-48q3 86 49.5 131t122.5 45q78 0 118.5 -41t40.5 -113q0 -32 -6.5 -56t-17.5 -44.5t-27 -39.5t-34 -41q-18 -21 -32.5 -39
t-24 -35.5t-14.5 -37t-5 -44.5v-66h-46v69zM179 -4q-17 0 -28.5 11t-11.5 28t11.5 28.5t28.5 11.5q16 0 27.5 -11.5t11.5 -28.5t-11.5 -28t-27.5 -11z" />
    <glyph glyph-name="A" unicode="A" horiz-adv-x="531" 
d="M394 206h-260l-57 -206h-49l201 715h74l201 -715h-53zM245 604l-99 -356h236l-99 356l-19 79z" />
    <glyph glyph-name="B" unicode="B" horiz-adv-x="510" 
d="M74 715h172q43 0 78 -9t60 -29t38.5 -51t13.5 -75v-33q0 -57 -28 -92t-82 -49q69 -12 103 -50.5t34 -110.5v-33q0 -94 -50.5 -138.5t-144.5 -44.5h-194v715zM246 395q72 0 105 31t33 94v32q0 65 -35 93t-104 28h-120v-278h121zM267 42q144 0 144 141v35q0 72 -39 103.5
t-120 31.5h-127v-311h142z" />
    <glyph glyph-name="C" unicode="C" horiz-adv-x="578" 
d="M306 -8q-60 0 -108 20t-81.5 57.5t-51.5 91t-18 119.5v154q0 65 19.5 118.5t54 91.5t81.5 58.5t103 20.5q45 0 85 -12.5t70.5 -38t50 -63t23.5 -88.5h-53q-8 80 -54 119.5t-122 39.5q-45 0 -82.5 -17t-64.5 -49t-41.5 -77.5t-14.5 -102.5v-153q0 -115 53 -180t151 -65
q76 0 127 42.5t58 131.5h50q-5 -56 -24.5 -97t-50.5 -68t-72 -40t-88 -13z" />
    <glyph glyph-name="D" unicode="D" horiz-adv-x="576" 
d="M244 715q71 0 124 -20.5t88.5 -57.5t53 -89t17.5 -116v-147q0 -63 -17 -115t-52 -90t-88 -59t-126 -21h-170v715h170zM126 672v-628h115q120 0 176 65t56 177v146q0 54 -13.5 98.5t-41.5 76t-72.5 48.5t-105.5 17h-114z" />
    <glyph glyph-name="E" unicode="E" horiz-adv-x="471" 
d="M74 715h341v-43h-289v-276h235v-43h-235v-310h304v-43h-356v715z" />
    <glyph glyph-name="F" unicode="F" horiz-adv-x="445" 
d="M74 715h336v-43h-284v-287h226v-44h-226v-341h-52v715z" />
    <glyph glyph-name="G" unicode="G" horiz-adv-x="602" 
d="M338 349h217v-100q0 -128 -65 -192.5t-177 -64.5q-64 0 -113.5 20.5t-83.5 58.5t-51.5 90.5t-17.5 117.5v156q0 65 19 118t54 91t83 58.5t107 20.5q44 0 83.5 -11t70.5 -35t50.5 -61t24.5 -89h-53q-5 41 -19.5 70t-37.5 47.5t-53 27t-65 8.5q-49 0 -87.5 -17.5
t-65.5 -49.5t-41.5 -77t-14.5 -101v-155q0 -113 53.5 -178.5t157.5 -65.5q96 0 143.5 54.5t47.5 156.5v59h-166v43z" />
    <glyph glyph-name="H" unicode="H" horiz-adv-x="580" 
d="M74 715h52v-333h328v333h52v-715h-52v337h-328v-337h-52v715z" />
    <glyph glyph-name="I" unicode="I" horiz-adv-x="209" 
d="M78 715h53v-715h-53v715z" />
    <glyph glyph-name="J" unicode="J" horiz-adv-x="329" 
d="M109 -5q-30 0 -50 5t-32 10v44q16 -6 34 -11t45 -5q49 0 77 27t28 92v558h52v-561q0 -43 -12 -73.5t-32.5 -49.5t-48.5 -27.5t-61 -8.5z" />
    <glyph glyph-name="K" unicode="K" horiz-adv-x="497" 
d="M74 715h52v-715h-52v715zM416 0l-289 367l279 348h58l-279 -343l292 -372h-61z" />
    <glyph glyph-name="L" unicode="L" horiz-adv-x="438" 
d="M74 715h52v-672h282v-43h-334v715z" />
    <glyph glyph-name="M" unicode="M" horiz-adv-x="695" 
d="M74 715h73l182 -548l17 -61l17 61l183 548h74v-715h-53v570l1 79l-24 -82l-191 -567h-17l-192 567l-23 82l1 -79v-570h-48v715z" />
    <glyph glyph-name="N" unicode="N" horiz-adv-x="580" 
d="M74 715h69l285 -562l31 -70l-1 74v558h49v-715h-61l-293 585l-31 68l1 -72v-581h-49v715z" />
    <glyph glyph-name="O" unicode="O" horiz-adv-x="633" 
d="M318 -8q-60 0 -110 21.5t-85 59.5t-54.5 90.5t-19.5 115.5v156q0 63 19.5 116t54.5 91.5t84.5 59.5t109.5 21t109 -21t84 -59t54.5 -90.5t19.5 -115.5v-155q0 -63 -19.5 -116.5t-54.5 -92t-84 -60t-108 -21.5zM318 37q49 0 88 18t66.5 50t42.5 77.5t15 99.5v154
q0 53 -14.5 97.5t-42.5 77t-67.5 50.5t-88.5 18q-50 0 -89.5 -17.5t-67.5 -50t-42.5 -77.5t-14.5 -99v-155q0 -55 15.5 -99.5t43.5 -76.5t67.5 -49.5t88.5 -17.5z" />
    <glyph glyph-name="P" unicode="P" horiz-adv-x="480" 
d="M74 715h163q46 0 84.5 -10t66 -32t42.5 -56.5t15 -83.5v-32q0 -48 -15 -83t-42.5 -57.5t-65.5 -33.5t-84 -11h-112v-316h-52v715zM241 358q72 0 111.5 34t39.5 109v32q0 78 -41 108.5t-112 30.5h-113v-314h115z" />
    <glyph glyph-name="Q" unicode="Q" horiz-adv-x="633" 
d="M318 -8q-60 0 -110 21.5t-85 59.5t-54.5 90.5t-19.5 115.5v156q0 63 19.5 116t54.5 91.5t84.5 59.5t109.5 21t109 -21t84 -59t54.5 -90.5t19.5 -115.5v-155q0 -73 -25.5 -132t-70.5 -98l71 -83l-34 -31l-75 88q-59 -34 -132 -34zM318 37q57 0 102 25l-78 91l35 30l80 -94
q35 32 54 81.5t19 111.5v154q0 53 -14.5 97.5t-42.5 77t-67.5 50.5t-88.5 18q-50 0 -89.5 -17.5t-67.5 -50t-42.5 -77.5t-14.5 -99v-155q0 -55 15.5 -99.5t43.5 -76.5t67.5 -49.5t88.5 -17.5z" />
    <glyph glyph-name="R" unicode="R" horiz-adv-x="509" 
d="M74 715h170q46 0 84.5 -10t66 -31.5t42.5 -54.5t15 -79v-25q0 -83 -42.5 -125t-111.5 -52l183 -338h-59l-178 334h-118v-334h-52v715zM248 376q73 0 112.5 32.5t39.5 106.5v25q0 72 -41.5 102t-113.5 30h-119v-296h122z" />
    <glyph glyph-name="S" unicode="S" horiz-adv-x="497" 
d="M253 -8q-53 0 -93 15t-66.5 41.5t-41 63.5t-16.5 82h52q2 -35 11.5 -64t29 -50t50 -32.5t74.5 -11.5q69 0 107.5 37t38.5 106q0 37 -9 63.5t-28.5 46.5t-49 35.5t-71.5 29.5q-45 15 -80 33t-58.5 41t-35.5 53t-12 71q0 39 13.5 70.5t37.5 54t58.5 34.5t76.5 12
q85 0 135.5 -43.5t55.5 -129.5h-49q-6 67 -42 98t-100 31t-100 -32.5t-36 -90.5q0 -30 7.5 -52.5t25.5 -40.5t47.5 -33t73.5 -30q47 -16 83 -34t60 -43t36 -59t12 -82q0 -92 -54 -141t-143 -49z" />
    <glyph glyph-name="T" unicode="T" horiz-adv-x="458" 
d="M203 672h-179v43h410v-43h-179v-672h-52v672z" />
    <glyph glyph-name="U" unicode="U" horiz-adv-x="562" 
d="M496 715v-493q0 -112 -54 -170.5t-163 -58.5q-100 0 -156.5 55t-56.5 166v501h53v-497q0 -95 41 -137.5t120 -42.5q80 0 121.5 43.5t41.5 145.5v488h53z" />
    <glyph glyph-name="V" unicode="V" horiz-adv-x="519" 
d="M284 131l160 584h50l-199 -715h-67l-203 715h52l164 -584l22 -89z" />
    <glyph glyph-name="W" unicode="W" horiz-adv-x="759" 
d="M28 715h53l115 -555l14 -74l16 74l135 555h41l131 -555l16 -76l14 76l119 555h49l-156 -715h-52l-128 542l-14 70l-15 -70l-135 -542h-51z" />
    <glyph glyph-name="X" unicode="X" horiz-adv-x="530" 
d="M232 373l-181 342h58l160 -301l158 301h55l-182 -343l194 -372h-58l-173 332l-173 -332h-55z" />
    <glyph glyph-name="Y" unicode="Y" horiz-adv-x="480" 
d="M218 316l-199 399h58l169 -346l161 346h53l-188 -400v-315h-54v316z" />
    <glyph glyph-name="Z" unicode="Z" horiz-adv-x="477" 
d="M22 10l352 661h-320v44h392v-9l-350 -662h344v-44h-418v10z" />
    <glyph glyph-name="a" unicode="a" horiz-adv-x="445" 
d="M190 -7q-71 0 -112 36.5t-41 107.5v9q0 42 16 71t43.5 47t64.5 25.5t79 7.5h92v68q0 63 -25.5 92.5t-83.5 29.5q-51 0 -82 -25t-35 -76h-50q2 37 16 64t37 45t52.5 26.5t63.5 8.5q73 0 115 -39t42 -126v-365h-50v70q-20 -35 -53.5 -56t-88.5 -21zM196 33q61 0 98.5 32.5
t37.5 87.5v106h-91q-34 0 -62.5 -5.5t-48.5 -18.5t-31.5 -35t-11.5 -54v-8q-1 -51 26 -78t83 -27z" />
    <glyph glyph-name="b" unicode="b" horiz-adv-x="505" 
d="M116 763v-338q9 21 24.5 40t36.5 33.5t46.5 23t54.5 8.5q41 0 75.5 -14t59 -41t38 -66.5t13.5 -89.5v-111q0 -51 -13.5 -91t-38.5 -67.5t-59.5 -42t-76.5 -14.5q-32 0 -58 8.5t-46 22.5t-34 32.5t-22 38.5v-95h-50v763h50zM115 210q0 -85 43 -130t111 -45
q67 0 105.5 43.5t38.5 128.5v110q0 43 -11 75t-30 53.5t-45 32t-57 10.5q-32 0 -60 -11.5t-49 -34t-33.5 -55t-12.5 -74.5v-103z" />
    <glyph glyph-name="c" unicode="c" horiz-adv-x="458" 
d="M241 -7q-44 0 -81 14.5t-63.5 42.5t-41.5 68t-15 91v104q0 50 15 90.5t42 68.5t63.5 43t79.5 15q36 0 67.5 -9.5t55.5 -29t39 -50t18 -71.5h-49q-5 62 -41.5 90t-89.5 28q-68 0 -108.5 -46t-40.5 -129v-104q0 -85 41 -129.5t109 -44.5q55 0 93.5 32t41.5 99h48
q-5 -83 -55 -128t-128 -45z" />
    <glyph glyph-name="d" unicode="d" horiz-adv-x="505" 
d="M439 0h-51v97q-8 -20 -23 -38.5t-35 -33t-46 -23.5t-56 -9q-41 0 -75.5 14t-59 41t-38.5 66.5t-14 90.5v109q0 50 14.5 90t40 68t61.5 43t78 15q62 0 99 -30.5t54 -70.5v334h51v-763zM389 312q0 85 -40 130.5t-108 45.5q-66 0 -107.5 -44.5t-41.5 -129.5v-108
q0 -86 40.5 -128.5t102.5 -42.5q33 0 61 11.5t48.5 34t32.5 55t12 74.5v102z" />
    <glyph glyph-name="e" unicode="e" horiz-adv-x="461" 
d="M240 -7q-95 0 -147.5 58.5t-52.5 158.5v103q0 49 14 89t39.5 68.5t61.5 44t80 15.5q41 0 75.5 -13t59 -39t38.5 -65.5t14 -92.5v-62h-331v-48q0 -83 37 -129t112 -46q57 0 90.5 26.5t40.5 79.5h49q-8 -74 -56 -111t-124 -37zM91 299h280v28q0 84 -36.5 122.5t-99.5 38.5
q-65 0 -104.5 -45t-39.5 -130v-14z" />
    <glyph glyph-name="f" unicode="f" horiz-adv-x="281" 
d="M88 480h-67v43h67v104q0 71 34.5 105t93.5 34q15 0 25.5 -2t20.5 -5v-42q-8 3 -19.5 4.5t-22.5 1.5q-38 0 -59.5 -22t-21.5 -71v-107h118v-43h-118v-480h-51v480z" />
    <glyph glyph-name="g" unicode="g" horiz-adv-x="505" 
d="M241 -184q-47 0 -81.5 11t-58 30t-37 44.5t-16.5 55.5h51q6 -46 40.5 -72.5t100.5 -26.5q68 0 108 35.5t40 115.5v102q-9 -20 -24 -38.5t-35 -33t-45.5 -23t-55.5 -8.5q-42 0 -76 14t-59 40t-38.5 64.5t-13.5 87.5v106q0 48 14.5 87t40 66t61 42t77.5 15q31 0 56 -8
t44 -22t32.5 -32t21.5 -37v92h51v-516q0 -50 -14.5 -86t-40.5 -59t-62.5 -34.5t-80.5 -11.5zM235 50q32 0 60 11.5t49 33t33 52.5t12 71v100q0 81 -40.5 125.5t-108.5 44.5q-67 0 -107.5 -43.5t-40.5 -124.5v-106q0 -82 40 -123t103 -41z" />
    <glyph glyph-name="h" unicode="h" horiz-adv-x="481" 
d="M66 763h50v-326q15 36 53.5 64.5t97.5 28.5q69 0 110.5 -41.5t41.5 -133.5v-355h-50v357q0 67 -29 98.5t-85 31.5q-28 0 -53.5 -9.5t-44.5 -27t-30 -43t-11 -57.5v-350h-50v763z" />
    <glyph glyph-name="i" unicode="i" horiz-adv-x="186" 
d="M92 625q-14 0 -24 10t-10 24t10 24.5t24 10.5q15 0 25 -10.5t10 -24.5t-10 -24t-25 -10zM68 523h50v-523h-50v523z" />
    <glyph glyph-name="j" unicode="j" horiz-adv-x="186" 
d="M92 625q-14 0 -24 10t-10 24t10 24.5t24 10.5q15 0 25 -10.5t10 -24.5t-10 -24t-25 -10zM-4 -140q41 5 56.5 24.5t15.5 60.5v578h50v-575q0 -63 -27 -95.5t-95 -35.5v43z" />
    <glyph glyph-name="k" unicode="k" horiz-adv-x="412" 
d="M116 276v-276h-50v763h50v-487l213 247h57l-212 -245l224 -278h-60z" />
    <glyph glyph-name="l" unicode="l" horiz-adv-x="188" 
d="M68 763h51v-763h-51v763z" />
    <glyph glyph-name="m" unicode="m" horiz-adv-x="742" 
d="M66 523h50v-82q15 35 50.5 62t88.5 27q50 0 83.5 -22.5t47.5 -74.5q20 46 61 71.5t90 25.5q64 0 103.5 -39.5t39.5 -132.5v-358h-51v360q0 68 -26 97.5t-77 29.5q-25 0 -48 -9t-41 -26.5t-28.5 -43t-10.5 -58.5v-350h-50v360q0 69 -26.5 98t-77.5 29q-25 0 -48 -9
t-41 -26.5t-28.5 -43t-10.5 -58.5v-350h-50v523z" />
    <glyph glyph-name="n" unicode="n" horiz-adv-x="481" 
d="M66 523h50v-86q15 36 53.5 64.5t97.5 28.5q69 0 110.5 -41.5t41.5 -133.5v-355h-50v357q0 67 -29 98.5t-85 31.5q-28 0 -53.5 -9.5t-44.5 -27t-30 -43t-11 -57.5v-350h-50v523z" />
    <glyph glyph-name="o" unicode="o" horiz-adv-x="487" 
d="M243 -7q-45 0 -82 15.5t-64 44t-42 68.5t-15 88v104q0 49 15.5 89t42.5 68t64.5 43.5t81.5 15.5t81.5 -15t64.5 -43t42 -68t15 -89v-104q0 -50 -15 -90t-42 -68t-64.5 -43.5t-82.5 -15.5zM243 35q69 0 111 46.5t42 127.5v104q0 82 -42 128t-110 46q-34 0 -62 -12
t-48.5 -34.5t-31.5 -55t-11 -72.5v-104q0 -80 41.5 -127t110.5 -47z" />
    <glyph glyph-name="p" unicode="p" horiz-adv-x="505" 
d="M116 523v-99q9 21 25 40t36.5 34t46 23.5t54.5 8.5q40 0 74.5 -14.5t59.5 -41.5t39 -66.5t14 -90.5v-109q0 -51 -14 -91t-39 -67.5t-60 -42t-76 -14.5q-32 0 -57.5 8.5t-45.5 22.5t-34 32.5t-23 38.5v-274h-50v702h50zM116 211q0 -85 43 -130.5t110 -45.5q66 0 105 44
t39 129v108q0 43 -11 75.5t-30.5 54t-46 32t-56.5 10.5q-31 0 -59 -12t-49 -34.5t-33 -55t-12 -74.5v-101z" />
    <glyph glyph-name="q" unicode="q" horiz-adv-x="505" 
d="M439 -177h-51v274q-9 -20 -24 -38.5t-35.5 -33t-46 -23.5t-55.5 -9q-41 0 -75.5 14t-59 40.5t-38 66t-13.5 90.5v111q0 50 14.5 90t40 67.5t61 42.5t77.5 15q31 0 56 -8.5t44 -22t32.5 -32t21.5 -37.5v93h51v-700zM389 313q0 85 -40.5 130t-108.5 45q-67 0 -107.5 -44
t-40.5 -129v-111q0 -86 39.5 -127.5t102.5 -41.5q33 0 61 11.5t49 34t33 54.5t12 74v104z" />
    <glyph glyph-name="r" unicode="r" horiz-adv-x="293" 
d="M66 523h50v-93q18 42 53.5 69t95.5 29v-47q-32 -1 -59.5 -9.5t-47.5 -27t-31 -47.5t-11 -71v-326h-50v523z" />
    <glyph glyph-name="s" unicode="s" horiz-adv-x="398" 
d="M204 -8q-81 0 -126 41.5t-47 113.5h49q3 -53 33 -82.5t90 -29.5q55 0 82.5 25.5t27.5 71.5q0 24 -7 41t-21 30.5t-36 23.5t-53 21q-39 13 -67.5 26.5t-47 31t-27 40.5t-8.5 55q0 31 12 55t32.5 40.5t47 25t56.5 8.5q31 0 58.5 -8t48 -24.5t33.5 -43t15 -62.5h-49
q-5 50 -31.5 73t-74.5 23q-47 0 -74 -22.5t-27 -63.5q0 -22 6.5 -37.5t20.5 -28t36.5 -23t55.5 -21.5q35 -11 62.5 -23.5t47 -30.5t30 -42.5t10.5 -60.5q0 -64 -40.5 -103.5t-117.5 -39.5z" />
    <glyph glyph-name="t" unicode="t" horiz-adv-x="286" 
d="M137 635v-112h113v-43h-113v-360q0 -45 17.5 -63.5t51.5 -18.5q29 0 48 8v-43q-8 -3 -21.5 -5.5t-31.5 -2.5q-115 0 -115 121v364h-66v43h66v112h51z" />
    <glyph glyph-name="u" unicode="u" horiz-adv-x="477" 
d="M412 0h-51v84q-15 -37 -53.5 -64t-94.5 -27q-68 0 -109.5 39t-41.5 130v361h51v-359q0 -68 28 -97.5t84 -29.5q27 0 51.5 9t43 26t30 42.5t11.5 57.5v351h51v-523z" />
    <glyph glyph-name="v" unicode="v" horiz-adv-x="429" 
d="M22 523h53l124 -410l18 -71l18 71l121 410h52l-159 -523h-66z" />
    <glyph glyph-name="w" unicode="w" horiz-adv-x="648" 
d="M24 523h54l95 -395l15 -71l16 71l103 395h40l99 -395l16 -71l15 71l96 395h51l-134 -523h-59l-89 366l-16 74l-17 -74l-96 -366h-58z" />
    <glyph glyph-name="x" unicode="x" horiz-adv-x="426" 
d="M182 271l-149 252h56l124 -213l122 213h53l-148 -249l163 -274h-56l-136 234l-135 -234h-53z" />
    <glyph glyph-name="y" unicode="y" horiz-adv-x="427" 
d="M193 182l25 -77l24 77l113 341h52l-241 -702h-51l78 223l-171 479h53z" />
    <glyph glyph-name="z" unicode="z" horiz-adv-x="392" 
d="M20 8l277 472h-251v43h324v-9l-273 -470h266v-44h-343v8z" />
    <glyph glyph-name="uni00A0" unicode="&#xa0;" horiz-adv-x="191" 
 />
    <glyph glyph-name="Agrave" unicode="&#xc0;" horiz-adv-x="531" 
d="M394 206h-260l-57 -206h-49l201 715h74l201 -715h-53zM245 604l-99 -356h236l-99 356l-19 79zM171 884h62l54 -116h-39z" />
    <glyph glyph-name="Aacute" unicode="&#xc1;" horiz-adv-x="531" 
d="M394 206h-260l-57 -206h-49l201 715h74l201 -715h-53zM245 604l-99 -356h236l-99 356l-19 79zM292 884h62l-77 -116h-40z" />
    <glyph glyph-name="Acircumflex" unicode="&#xc2;" horiz-adv-x="531" 
d="M394 206h-260l-57 -206h-49l201 715h74l201 -715h-53zM245 604l-99 -356h236l-99 356l-19 79zM240 883h48l92 -115h-39l-78 73l-79 -73h-38z" />
    <glyph glyph-name="Atilde" unicode="&#xc3;" horiz-adv-x="531" 
d="M394 206h-260l-57 -206h-49l201 715h74l201 -715h-53zM245 604l-99 -356h236l-99 356l-19 79zM317 770q-15 0 -29.5 7t-27.5 15t-25.5 15t-23.5 7q-15 0 -25 -12t-14 -33h-37q5 42 25.5 65t49.5 23q16 0 30 -7t27.5 -15t25.5 -15t23 -7q14 0 24.5 12t13.5 34h37
q-5 -42 -25 -65.5t-49 -23.5z" />
    <glyph glyph-name="Adieresis" unicode="&#xc4;" horiz-adv-x="531" 
d="M394 206h-260l-57 -206h-49l201 715h74l201 -715h-53zM245 604l-99 -356h236l-99 356l-19 79zM183 783q-14 0 -23.5 9.5t-9.5 23.5t9.5 24t23.5 10t24 -10t10 -24t-10 -23.5t-24 -9.5zM341 783q-14 0 -24 9.5t-10 23.5t10 24t24 10t23.5 -10t9.5 -24t-9.5 -23.5
t-23.5 -9.5z" />
    <glyph glyph-name="Aring" unicode="&#xc5;" horiz-adv-x="531" 
d="M394 206h-260l-57 -206h-49l201 715h74l201 -715h-53zM245 604l-99 -356h236l-99 356l-19 79zM263 752q-36 0 -61 24.5t-25 59.5t25 59.5t61 24.5t61 -24.5t25 -59.5t-25 -59.5t-61 -24.5zM263 784q22 0 36 14.5t14 37.5t-14 37.5t-36 14.5t-35.5 -14.5t-13.5 -37.5
t13.5 -37.5t35.5 -14.5z" />
    <glyph glyph-name="AE" unicode="&#xc6;" horiz-adv-x="767" 
d="M302 715h412v-43h-282v-276h228v-43h-228v-309h296v-44h-348v206h-225l-79 -206h-53zM171 248h209v424h-46z" />
    <glyph glyph-name="Ccedilla" unicode="&#xc7;" horiz-adv-x="578" 
d="M306 -8q-60 0 -108 20t-81.5 57.5t-51.5 91t-18 119.5v154q0 65 19.5 118.5t54 91.5t81.5 58.5t103 20.5q45 0 85 -12.5t70.5 -38t50 -63t23.5 -88.5h-53q-8 80 -54 119.5t-122 39.5q-45 0 -82.5 -17t-64.5 -49t-41.5 -77.5t-14.5 -102.5v-153q0 -115 53 -180t151 -65
q76 0 127 42.5t58 131.5h50q-5 -56 -24.5 -97t-50.5 -68t-72 -40t-88 -13zM295 -198q-38 0 -62 19.5t-28 52.5h38q2 -18 15 -29t35 -11t34.5 12t12.5 30q0 22 -13 31t-31 9q-12 0 -20.5 -3t-12.5 -6l-21 19l42 74h35l-32 -57q17 4 34 1.5t30 -11t21 -23t8 -35.5
q0 -36 -25 -54.5t-60 -18.5z" />
    <glyph glyph-name="Egrave" unicode="&#xc8;" horiz-adv-x="471" 
d="M152 884h62l54 -116h-39zM74 715h341v-43h-289v-276h235v-43h-235v-310h304v-43h-356v715z" />
    <glyph glyph-name="Eacute" unicode="&#xc9;" horiz-adv-x="471" 
d="M273 884h62l-77 -116h-40zM74 715h341v-43h-289v-276h235v-43h-235v-310h304v-43h-356v715z" />
    <glyph glyph-name="Ecircumflex" unicode="&#xca;" horiz-adv-x="471" 
d="M220 883h48l92 -115h-39l-78 73l-79 -73h-38zM74 715h341v-43h-289v-276h235v-43h-235v-310h304v-43h-356v715z" />
    <glyph glyph-name="Edieresis" unicode="&#xcb;" horiz-adv-x="471" 
d="M74 715h341v-43h-289v-276h235v-43h-235v-310h304v-43h-356v715zM164 783q-14 0 -23.5 9.5t-9.5 23.5t9.5 24t23.5 10t24 -10t10 -24t-10 -23.5t-24 -9.5zM322 783q-14 0 -24 9.5t-10 23.5t10 24t24 10t23.5 -10t9.5 -24t-9.5 -23.5t-23.5 -9.5z" />
    <glyph glyph-name="Igrave" unicode="&#xcc;" horiz-adv-x="209" 
d="M78 715h53v-715h-53v715zM12 884h62l54 -116h-39z" />
    <glyph glyph-name="Iacute" unicode="&#xcd;" horiz-adv-x="209" 
d="M78 715h53v-715h-53v715zM134 884h62l-77 -116h-40z" />
    <glyph glyph-name="Icircumflex" unicode="&#xce;" horiz-adv-x="209" 
d="M78 715h53v-715h-53v715zM81 883h48l92 -115h-39l-78 73l-79 -73h-38z" />
    <glyph glyph-name="Idieresis" unicode="&#xcf;" horiz-adv-x="209" 
d="M78 715h53v-715h-53v715zM25 783q-14 0 -23.5 9.5t-9.5 23.5t9.5 24t23.5 10t24 -10t10 -24t-10 -23.5t-24 -9.5zM183 783q-14 0 -24 9.5t-10 23.5t10 24t24 10t23.5 -10t9.5 -24t-9.5 -23.5t-23.5 -9.5z" />
    <glyph glyph-name="Ntilde" unicode="&#xd1;" horiz-adv-x="580" 
d="M352 770q-15 0 -29.5 7t-27.5 15t-25.5 15t-23.5 7q-15 0 -25 -12t-14 -33h-37q5 42 25.5 65t49.5 23q16 0 30 -7t27.5 -15t25.5 -15t23 -7q14 0 24.5 12t13.5 34h37q-5 -42 -25 -65.5t-49 -23.5zM74 715h69l285 -562l31 -70l-1 74v558h49v-715h-61l-293 585l-31 68
l1 -72v-581h-49v715z" />
    <glyph glyph-name="Ograve" unicode="&#xd2;" horiz-adv-x="633" 
d="M225 884h62l54 -116h-39zM318 -8q-60 0 -110 21.5t-85 59.5t-54.5 90.5t-19.5 115.5v156q0 63 19.5 116t54.5 91.5t84.5 59.5t109.5 21t109 -21t84 -59t54.5 -90.5t19.5 -115.5v-155q0 -63 -19.5 -116.5t-54.5 -92t-84 -60t-108 -21.5zM318 37q49 0 88 18t66.5 50
t42.5 77.5t15 99.5v154q0 53 -14.5 97.5t-42.5 77t-67.5 50.5t-88.5 18q-50 0 -89.5 -17.5t-67.5 -50t-42.5 -77.5t-14.5 -99v-155q0 -55 15.5 -99.5t43.5 -76.5t67.5 -49.5t88.5 -17.5z" />
    <glyph glyph-name="Oacute" unicode="&#xd3;" horiz-adv-x="633" 
d="M345 884h62l-77 -116h-40zM318 -8q-60 0 -110 21.5t-85 59.5t-54.5 90.5t-19.5 115.5v156q0 63 19.5 116t54.5 91.5t84.5 59.5t109.5 21t109 -21t84 -59t54.5 -90.5t19.5 -115.5v-155q0 -63 -19.5 -116.5t-54.5 -92t-84 -60t-108 -21.5zM318 37q49 0 88 18t66.5 50
t42.5 77.5t15 99.5v154q0 53 -14.5 97.5t-42.5 77t-67.5 50.5t-88.5 18q-50 0 -89.5 -17.5t-67.5 -50t-42.5 -77.5t-14.5 -99v-155q0 -55 15.5 -99.5t43.5 -76.5t67.5 -49.5t88.5 -17.5z" />
    <glyph glyph-name="Ocircumflex" unicode="&#xd4;" horiz-adv-x="633" 
d="M294 883h48l92 -115h-39l-78 73l-79 -73h-38zM318 -8q-60 0 -110 21.5t-85 59.5t-54.5 90.5t-19.5 115.5v156q0 63 19.5 116t54.5 91.5t84.5 59.5t109.5 21t109 -21t84 -59t54.5 -90.5t19.5 -115.5v-155q0 -63 -19.5 -116.5t-54.5 -92t-84 -60t-108 -21.5zM318 37
q49 0 88 18t66.5 50t42.5 77.5t15 99.5v154q0 53 -14.5 97.5t-42.5 77t-67.5 50.5t-88.5 18q-50 0 -89.5 -17.5t-67.5 -50t-42.5 -77.5t-14.5 -99v-155q0 -55 15.5 -99.5t43.5 -76.5t67.5 -49.5t88.5 -17.5z" />
    <glyph glyph-name="Otilde" unicode="&#xd5;" horiz-adv-x="633" 
d="M370 770q-15 0 -29.5 7t-27.5 15t-25.5 15t-23.5 7q-15 0 -25 -12t-14 -33h-37q5 42 25.5 65t49.5 23q16 0 30 -7t27.5 -15t25.5 -15t23 -7q14 0 24.5 12t13.5 34h37q-5 -42 -25 -65.5t-49 -23.5zM318 -8q-60 0 -110 21.5t-85 59.5t-54.5 90.5t-19.5 115.5v156
q0 63 19.5 116t54.5 91.5t84.5 59.5t109.5 21t109 -21t84 -59t54.5 -90.5t19.5 -115.5v-155q0 -63 -19.5 -116.5t-54.5 -92t-84 -60t-108 -21.5zM318 37q49 0 88 18t66.5 50t42.5 77.5t15 99.5v154q0 53 -14.5 97.5t-42.5 77t-67.5 50.5t-88.5 18q-50 0 -89.5 -17.5
t-67.5 -50t-42.5 -77.5t-14.5 -99v-155q0 -55 15.5 -99.5t43.5 -76.5t67.5 -49.5t88.5 -17.5z" />
    <glyph glyph-name="Odieresis" unicode="&#xd6;" horiz-adv-x="633" 
d="M237 783q-14 0 -23.5 9.5t-9.5 23.5t9.5 24t23.5 10t24 -10t10 -24t-10 -23.5t-24 -9.5zM395 783q-14 0 -24 9.5t-10 23.5t10 24t24 10t23.5 -10t9.5 -24t-9.5 -23.5t-23.5 -9.5zM318 -8q-60 0 -110 21.5t-85 59.5t-54.5 90.5t-19.5 115.5v156q0 63 19.5 116t54.5 91.5
t84.5 59.5t109.5 21t109 -21t84 -59t54.5 -90.5t19.5 -115.5v-155q0 -63 -19.5 -116.5t-54.5 -92t-84 -60t-108 -21.5zM318 37q49 0 88 18t66.5 50t42.5 77.5t15 99.5v154q0 53 -14.5 97.5t-42.5 77t-67.5 50.5t-88.5 18q-50 0 -89.5 -17.5t-67.5 -50t-42.5 -77.5t-14.5 -99
v-155q0 -55 15.5 -99.5t43.5 -76.5t67.5 -49.5t88.5 -17.5z" />
    <glyph glyph-name="Ugrave" unicode="&#xd9;" horiz-adv-x="557" 
d="M186 884h62l54 -116h-39zM496 715v-493q0 -112 -54 -170.5t-163 -58.5q-100 0 -156.5 55t-56.5 166v501h53v-497q0 -95 41 -137.5t120 -42.5q80 0 121.5 43.5t41.5 145.5v488h53z" />
    <glyph glyph-name="Uacute" unicode="&#xda;" horiz-adv-x="557" 
d="M307 884h62l-77 -116h-40zM496 715v-493q0 -112 -54 -170.5t-163 -58.5q-100 0 -156.5 55t-56.5 166v501h53v-497q0 -95 41 -137.5t120 -42.5q80 0 121.5 43.5t41.5 145.5v488h53z" />
    <glyph glyph-name="Ucircumflex" unicode="&#xdb;" horiz-adv-x="557" 
d="M254 883h48l92 -115h-39l-78 73l-79 -73h-38zM496 715v-493q0 -112 -54 -170.5t-163 -58.5q-100 0 -156.5 55t-56.5 166v501h53v-497q0 -95 41 -137.5t120 -42.5q80 0 121.5 43.5t41.5 145.5v488h53z" />
    <glyph glyph-name="Udieresis" unicode="&#xdc;" horiz-adv-x="557" 
d="M496 715v-493q0 -112 -54 -170.5t-163 -58.5q-100 0 -156.5 55t-56.5 166v501h53v-497q0 -95 41 -137.5t120 -42.5q80 0 121.5 43.5t41.5 145.5v488h53zM198 783q-14 0 -23.5 9.5t-9.5 23.5t9.5 24t23.5 10t24 -10t10 -24t-10 -23.5t-24 -9.5zM356 783q-14 0 -24 9.5
t-10 23.5t10 24t24 10t23.5 -10t9.5 -24t-9.5 -23.5t-23.5 -9.5z" />
    <glyph glyph-name="Yacute" unicode="&#xdd;" horiz-adv-x="480" 
d="M218 316l-199 399h58l169 -346l161 346h53l-188 -400v-315h-54v316zM273 884h62l-77 -116h-40z" />
    <glyph glyph-name="germandbls" unicode="&#xdf;" horiz-adv-x="474" 
d="M262 -5q-22 0 -41 3t-30 8v43q14 -5 31 -8t37 -3q25 0 48 7t40 24t27.5 46t10.5 73v68q0 82 -46.5 128t-124.5 44v43q35 0 60 10t41.5 27.5t24.5 41t8 50.5q0 63 -29.5 94t-84.5 31t-86.5 -35.5t-31.5 -98.5v-591h-50v588q0 42 12.5 75t35 56.5t53.5 35.5t67 12
q75 0 119 -44t44 -123q0 -54 -28.5 -94t-80.5 -54q64 -13 106.5 -63t42.5 -133v-67q0 -55 -13.5 -92t-37.5 -59.5t-56 -32.5t-68 -10z" />
    <glyph glyph-name="agrave" unicode="&#xe0;" horiz-adv-x="445" 
d="M190 -7q-71 0 -112 36.5t-41 107.5v9q0 42 16 71t43.5 47t64.5 25.5t79 7.5h92v68q0 63 -25.5 92.5t-83.5 29.5q-51 0 -82 -25t-35 -76h-50q2 37 16 64t37 45t52.5 26.5t63.5 8.5q73 0 115 -39t42 -126v-365h-50v70q-20 -35 -53.5 -56t-88.5 -21zM196 33q61 0 98.5 32.5
t37.5 87.5v106h-91q-34 0 -62.5 -5.5t-48.5 -18.5t-31.5 -35t-11.5 -54v-8q-1 -51 26 -78t83 -27zM126 739h62l59 -140h-39z" />
    <glyph glyph-name="aacute" unicode="&#xe1;" horiz-adv-x="445" 
d="M190 -7q-71 0 -112 36.5t-41 107.5v9q0 42 16 71t43.5 47t64.5 25.5t79 7.5h92v68q0 63 -25.5 92.5t-83.5 29.5q-51 0 -82 -25t-35 -76h-50q2 37 16 64t37 45t52.5 26.5t63.5 8.5q73 0 115 -39t42 -126v-365h-50v70q-20 -35 -53.5 -56t-88.5 -21zM196 33q61 0 98.5 32.5
t37.5 87.5v106h-91q-34 0 -62.5 -5.5t-48.5 -18.5t-31.5 -35t-11.5 -54v-8q-1 -51 26 -78t83 -27zM256 739h62l-82 -140h-39z" />
    <glyph glyph-name="acircumflex" unicode="&#xe2;" horiz-adv-x="445" 
d="M190 -7q-71 0 -112 36.5t-41 107.5v9q0 42 16 71t43.5 47t64.5 25.5t79 7.5h92v68q0 63 -25.5 92.5t-83.5 29.5q-51 0 -82 -25t-35 -76h-50q2 37 16 64t37 45t52.5 26.5t63.5 8.5q73 0 115 -39t42 -126v-365h-50v70q-20 -35 -53.5 -56t-88.5 -21zM196 33q61 0 98.5 32.5
t37.5 87.5v106h-91q-34 0 -62.5 -5.5t-48.5 -18.5t-31.5 -35t-11.5 -54v-8q-1 -51 26 -78t83 -27zM197 729h48l93 -130h-41l-76 87l-77 -87h-40z" />
    <glyph glyph-name="atilde" unicode="&#xe3;" horiz-adv-x="445" 
d="M190 -7q-71 0 -112 36.5t-41 107.5v9q0 42 16 71t43.5 47t64.5 25.5t79 7.5h92v68q0 63 -25.5 92.5t-83.5 29.5q-51 0 -82 -25t-35 -76h-50q2 37 16 64t37 45t52.5 26.5t63.5 8.5q73 0 115 -39t42 -126v-365h-50v70q-20 -35 -53.5 -56t-88.5 -21zM196 33q61 0 98.5 32.5
t37.5 87.5v106h-91q-34 0 -62.5 -5.5t-48.5 -18.5t-31.5 -35t-11.5 -54v-8q-1 -51 26 -78t83 -27zM276 617q-15 0 -29.5 7t-27.5 16t-25 16t-23 7q-14 0 -24 -12.5t-14 -34.5h-37q5 43 25.5 66.5t49.5 23.5q15 0 29.5 -7t27.5 -15.5t25 -15.5t23 -7q14 0 24 12.5t14 34.5h36
q-4 -43 -24.5 -67t-49.5 -24z" />
    <glyph glyph-name="adieresis" unicode="&#xe4;" horiz-adv-x="445" 
d="M190 -7q-71 0 -112 36.5t-41 107.5v9q0 42 16 71t43.5 47t64.5 25.5t79 7.5h92v68q0 63 -25.5 92.5t-83.5 29.5q-51 0 -82 -25t-35 -76h-50q2 37 16 64t37 45t52.5 26.5t63.5 8.5q73 0 115 -39t42 -126v-365h-50v70q-20 -35 -53.5 -56t-88.5 -21zM196 33q61 0 98.5 32.5
t37.5 87.5v106h-91q-34 0 -62.5 -5.5t-48.5 -18.5t-31.5 -35t-11.5 -54v-8q-1 -51 26 -78t83 -27zM151 625q-14 0 -24 10t-10 24t10 24t24 10t24 -10t10 -24t-10 -24t-24 -10zM296 625q-14 0 -24 10t-10 24t10 24t24 10t24 -10t10 -24t-10 -24t-24 -10z" />
    <glyph glyph-name="aring" unicode="&#xe5;" horiz-adv-x="445" 
d="M190 -7q-71 0 -112 36.5t-41 107.5v9q0 42 16 71t43.5 47t64.5 25.5t79 7.5h92v68q0 63 -25.5 92.5t-83.5 29.5q-51 0 -82 -25t-35 -76h-50q2 37 16 64t37 45t52.5 26.5t63.5 8.5q73 0 115 -39t42 -126v-365h-50v70q-20 -35 -53.5 -56t-88.5 -21zM196 33q61 0 98.5 32.5
t37.5 87.5v106h-91q-34 0 -62.5 -5.5t-48.5 -18.5t-31.5 -35t-11.5 -54v-8q-1 -51 26 -78t83 -27zM223 599q-36 0 -61 24.5t-25 59.5t25 59.5t61 24.5t61 -24.5t25 -59.5t-25 -59.5t-61 -24.5zM223 630q21 0 35.5 15.5t14.5 37.5t-14.5 37t-35.5 15t-35 -15t-14 -37
t14 -37.5t35 -15.5z" />
    <glyph glyph-name="ae" unicode="&#xe6;" horiz-adv-x="739" 
d="M192 -7q-71 0 -113 37t-42 107v9q0 43 15.5 72t43 47t64.5 26t79 8h90v67q0 64 -25.5 92.5t-81.5 28.5q-51 0 -81.5 -24.5t-34.5 -76.5h-50q2 37 16 64.5t36.5 45t52 26t62.5 8.5q54 0 89.5 -21.5t49.5 -69.5q23 43 62.5 67t92.5 24q40 0 73.5 -13t57.5 -39t37.5 -65.5
t13.5 -92.5v-61h-321v-49q0 -83 34.5 -129t107.5 -46q56 0 89 26.5t39 79.5h49q-8 -74 -55 -111t-123 -37q-62 0 -103.5 27.5t-61.5 78.5q-20 -50 -58.5 -78t-103.5 -28zM378 300h271v31q-1 81 -35.5 119t-98.5 38q-63 0 -100 -45t-37 -130v-13zM196 33q60 0 96.5 33
t36.5 91v103h-88q-34 0 -62.5 -5.5t-48.5 -18.5t-31.5 -35t-11.5 -55v-8q-1 -52 27 -78.5t82 -26.5z" />
    <glyph glyph-name="ccedilla" unicode="&#xe7;" horiz-adv-x="458" 
d="M241 -7q-44 0 -81 14.5t-63.5 42.5t-41.5 68t-15 91v104q0 50 15 90.5t42 68.5t63.5 43t79.5 15q36 0 67.5 -9.5t55.5 -29t39 -50t18 -71.5h-49q-5 62 -41.5 90t-89.5 28q-68 0 -108.5 -46t-40.5 -129v-104q0 -85 41 -129.5t109 -44.5q55 0 93.5 32t41.5 99h48
q-5 -83 -55 -128t-128 -45zM226 -198q-38 0 -62 19.5t-28 52.5h38q2 -18 15 -29t35 -11t34.5 12t12.5 30q0 22 -13 31t-31 9q-12 0 -20.5 -3t-12.5 -6l-21 19l42 74h35l-32 -57q17 4 34 1.5t30 -11t21 -23t8 -35.5q0 -36 -25 -54.5t-60 -18.5z" />
    <glyph glyph-name="egrave" unicode="&#xe8;" horiz-adv-x="461" 
d="M240 -7q-95 0 -147.5 58.5t-52.5 158.5v103q0 49 14 89t39.5 68.5t61.5 44t80 15.5q41 0 75.5 -13t59 -39t38.5 -65.5t14 -92.5v-62h-331v-48q0 -83 37 -129t112 -46q57 0 90.5 26.5t40.5 79.5h49q-8 -74 -56 -111t-124 -37zM91 299h280v28q0 84 -36.5 122.5t-99.5 38.5
q-65 0 -104.5 -45t-39.5 -130v-14zM137 739h62l59 -140h-39z" />
    <glyph glyph-name="eacute" unicode="&#xe9;" horiz-adv-x="461" 
d="M268 739h62l-82 -140h-39zM240 -7q-95 0 -147.5 58.5t-52.5 158.5v103q0 49 14 89t39.5 68.5t61.5 44t80 15.5q41 0 75.5 -13t59 -39t38.5 -65.5t14 -92.5v-62h-331v-48q0 -83 37 -129t112 -46q57 0 90.5 26.5t40.5 79.5h49q-8 -74 -56 -111t-124 -37zM91 299h280v28
q0 84 -36.5 122.5t-99.5 38.5q-65 0 -104.5 -45t-39.5 -130v-14z" />
    <glyph glyph-name="ecircumflex" unicode="&#xea;" horiz-adv-x="461" 
d="M210 729h48l93 -130h-41l-76 87l-77 -87h-40zM240 -7q-95 0 -147.5 58.5t-52.5 158.5v103q0 49 14 89t39.5 68.5t61.5 44t80 15.5q41 0 75.5 -13t59 -39t38.5 -65.5t14 -92.5v-62h-331v-48q0 -83 37 -129t112 -46q57 0 90.5 26.5t40.5 79.5h49q-8 -74 -56 -111t-124 -37z
M91 299h280v28q0 84 -36.5 122.5t-99.5 38.5q-65 0 -104.5 -45t-39.5 -130v-14z" />
    <glyph glyph-name="edieresis" unicode="&#xeb;" horiz-adv-x="461" 
d="M162 625q-14 0 -24 10t-10 24t10 24t24 10t24 -10t10 -24t-10 -24t-24 -10zM307 625q-14 0 -24 10t-10 24t10 24t24 10t24 -10t10 -24t-10 -24t-24 -10zM240 -7q-95 0 -147.5 58.5t-52.5 158.5v103q0 49 14 89t39.5 68.5t61.5 44t80 15.5q41 0 75.5 -13t59 -39
t38.5 -65.5t14 -92.5v-62h-331v-48q0 -83 37 -129t112 -46q57 0 90.5 26.5t40.5 79.5h49q-8 -74 -56 -111t-124 -37zM91 299h280v28q0 84 -36.5 122.5t-99.5 38.5q-65 0 -104.5 -45t-39.5 -130v-14z" />
    <glyph glyph-name="igrave" unicode="&#xec;" horiz-adv-x="186" 
d="M68 523h50v-523h-50v523zM-5 739h62l59 -140h-39z" />
    <glyph glyph-name="iacute" unicode="&#xed;" horiz-adv-x="186" 
d="M128 739h62l-82 -140h-39zM68 523h50v-523h-50v523z" />
    <glyph glyph-name="icircumflex" unicode="&#xee;" horiz-adv-x="186" 
d="M69 729h48l93 -130h-41l-76 87l-77 -87h-40zM68 523h50v-523h-50v523z" />
    <glyph glyph-name="idieresis" unicode="&#xef;" horiz-adv-x="186" 
d="M30 625q-14 0 -24 10t-10 24t10 24t24 10t24 -10t10 -24t-10 -24t-24 -10zM156 625q-14 0 -24.5 10t-10.5 24t10.5 24t24.5 10t24 -10t10 -24t-10 -24t-24 -10zM68 523h50v-523h-50v523z" />
    <glyph glyph-name="ntilde" unicode="&#xf1;" horiz-adv-x="481" 
d="M66 523h50v-86q15 36 53.5 64.5t97.5 28.5q69 0 110.5 -41.5t41.5 -133.5v-355h-50v357q0 67 -29 98.5t-85 31.5q-28 0 -53.5 -9.5t-44.5 -27t-30 -43t-11 -57.5v-350h-50v523zM293 617q-15 0 -29.5 7t-27.5 16t-25 16t-23 7q-14 0 -24 -12.5t-14 -34.5h-37
q5 43 25.5 66.5t49.5 23.5q15 0 29.5 -7t27.5 -15.5t25 -15.5t23 -7q14 0 24 12.5t14 34.5h36q-4 -43 -24.5 -67t-49.5 -24z" />
    <glyph glyph-name="ograve" unicode="&#xf2;" horiz-adv-x="487" 
d="M243 -7q-45 0 -82 15.5t-64 44t-42 68.5t-15 88v104q0 49 15.5 89t42.5 68t64.5 43.5t81.5 15.5t81.5 -15t64.5 -43t42 -68t15 -89v-104q0 -50 -15 -90t-42 -68t-64.5 -43.5t-82.5 -15.5zM243 35q69 0 111 46.5t42 127.5v104q0 82 -42 128t-110 46q-34 0 -62 -12
t-48.5 -34.5t-31.5 -55t-11 -72.5v-104q0 -80 41.5 -127t110.5 -47zM147 739h62l59 -140h-39z" />
    <glyph glyph-name="oacute" unicode="&#xf3;" horiz-adv-x="487" 
d="M277 739h62l-82 -140h-39zM243 -7q-45 0 -82 15.5t-64 44t-42 68.5t-15 88v104q0 49 15.5 89t42.5 68t64.5 43.5t81.5 15.5t81.5 -15t64.5 -43t42 -68t15 -89v-104q0 -50 -15 -90t-42 -68t-64.5 -43.5t-82.5 -15.5zM243 35q69 0 111 46.5t42 127.5v104q0 82 -42 128
t-110 46q-34 0 -62 -12t-48.5 -34.5t-31.5 -55t-11 -72.5v-104q0 -80 41.5 -127t110.5 -47z" />
    <glyph glyph-name="ocircumflex" unicode="&#xf4;" horiz-adv-x="487" 
d="M219 729h48l93 -130h-41l-76 87l-77 -87h-40zM243 -7q-45 0 -82 15.5t-64 44t-42 68.5t-15 88v104q0 49 15.5 89t42.5 68t64.5 43.5t81.5 15.5t81.5 -15t64.5 -43t42 -68t15 -89v-104q0 -50 -15 -90t-42 -68t-64.5 -43.5t-82.5 -15.5zM243 35q69 0 111 46.5t42 127.5v104
q0 82 -42 128t-110 46q-34 0 -62 -12t-48.5 -34.5t-31.5 -55t-11 -72.5v-104q0 -80 41.5 -127t110.5 -47z" />
    <glyph glyph-name="otilde" unicode="&#xf5;" horiz-adv-x="487" 
d="M243 -7q-45 0 -82 15.5t-64 44t-42 68.5t-15 88v104q0 49 15.5 89t42.5 68t64.5 43.5t81.5 15.5t81.5 -15t64.5 -43t42 -68t15 -89v-104q0 -50 -15 -90t-42 -68t-64.5 -43.5t-82.5 -15.5zM243 35q69 0 111 46.5t42 127.5v104q0 82 -42 128t-110 46q-34 0 -62 -12
t-48.5 -34.5t-31.5 -55t-11 -72.5v-104q0 -80 41.5 -127t110.5 -47zM296 617q-15 0 -29.5 7t-27.5 16t-25 16t-23 7q-14 0 -24 -12.5t-14 -34.5h-37q5 43 25.5 66.5t49.5 23.5q15 0 29.5 -7t27.5 -15.5t25 -15.5t23 -7q14 0 24 12.5t14 34.5h36q-4 -43 -24.5 -67t-49.5 -24z
" />
    <glyph glyph-name="odieresis" unicode="&#xf6;" horiz-adv-x="487" 
d="M171 625q-14 0 -24 10t-10 24t10 24t24 10t24 -10t10 -24t-10 -24t-24 -10zM316 625q-14 0 -24 10t-10 24t10 24t24 10t24 -10t10 -24t-10 -24t-24 -10zM243 -7q-45 0 -82 15.5t-64 44t-42 68.5t-15 88v104q0 49 15.5 89t42.5 68t64.5 43.5t81.5 15.5t81.5 -15t64.5 -43
t42 -68t15 -89v-104q0 -50 -15 -90t-42 -68t-64.5 -43.5t-82.5 -15.5zM243 35q69 0 111 46.5t42 127.5v104q0 82 -42 128t-110 46q-34 0 -62 -12t-48.5 -34.5t-31.5 -55t-11 -72.5v-104q0 -80 41.5 -127t110.5 -47z" />
    <glyph glyph-name="ugrave" unicode="&#xf9;" horiz-adv-x="477" 
d="M412 0h-51v84q-15 -37 -53.5 -64t-94.5 -27q-68 0 -109.5 39t-41.5 130v361h51v-359q0 -68 28 -97.5t84 -29.5q27 0 51.5 9t43 26t30 42.5t11.5 57.5v351h51v-523zM141 739h62l59 -140h-39z" />
    <glyph glyph-name="uacute" unicode="&#xfa;" horiz-adv-x="477" 
d="M271 739h62l-82 -140h-39zM412 0h-51v84q-15 -37 -53.5 -64t-94.5 -27q-68 0 -109.5 39t-41.5 130v361h51v-359q0 -68 28 -97.5t84 -29.5q27 0 51.5 9t43 26t30 42.5t11.5 57.5v351h51v-523z" />
    <glyph glyph-name="ucircumflex" unicode="&#xfb;" horiz-adv-x="477" 
d="M215 729h48l93 -130h-41l-76 87l-77 -87h-40zM412 0h-51v84q-15 -37 -53.5 -64t-94.5 -27q-68 0 -109.5 39t-41.5 130v361h51v-359q0 -68 28 -97.5t84 -29.5q27 0 51.5 9t43 26t30 42.5t11.5 57.5v351h51v-523z" />
    <glyph glyph-name="udieresis" unicode="&#xfc;" horiz-adv-x="477" 
d="M166 625q-14 0 -24 10t-10 24t10 24t24 10t24 -10t10 -24t-10 -24t-24 -10zM311 625q-14 0 -24 10t-10 24t10 24t24 10t24 -10t10 -24t-10 -24t-24 -10zM412 0h-51v84q-15 -37 -53.5 -64t-94.5 -27q-68 0 -109.5 39t-41.5 130v361h51v-359q0 -68 28 -97.5t84 -29.5
q27 0 51.5 9t43 26t30 42.5t11.5 57.5v351h51v-523z" />
    <glyph glyph-name="yacute" unicode="&#xfd;" horiz-adv-x="427" 
d="M193 182l25 -77l24 77l113 341h52l-241 -702h-51l78 223l-171 479h53zM250 739h62l-82 -140h-39z" />
    <glyph glyph-name="ydieresis" unicode="&#xff;" horiz-adv-x="427" 
d="M193 182l25 -77l24 77l113 341h52l-241 -702h-51l78 223l-171 479h53zM145 625q-14 0 -24 10t-10 24t10 24t24 10t24 -10t10 -24t-10 -24t-24 -10zM290 625q-14 0 -24 10t-10 24t10 24t24 10t24 -10t10 -24t-10 -24t-24 -10z" />
    <glyph glyph-name="Amacron" unicode="&#x100;" horiz-adv-x="531" 
d="M394 206h-260l-57 -206h-49l201 715h74l201 -715h-53zM245 604l-99 -356h236l-99 356l-19 79zM154 827h218v-41h-218v41z" />
    <glyph glyph-name="amacron" unicode="&#x101;" horiz-adv-x="445" 
d="M190 -7q-71 0 -112 36.5t-41 107.5v9q0 42 16 71t43.5 47t64.5 25.5t79 7.5h92v68q0 63 -25.5 92.5t-83.5 29.5q-51 0 -82 -25t-35 -76h-50q2 37 16 64t37 45t52.5 26.5t63.5 8.5q73 0 115 -39t42 -126v-365h-50v70q-20 -35 -53.5 -56t-88.5 -21zM196 33q61 0 98.5 32.5
t37.5 87.5v106h-91q-34 0 -62.5 -5.5t-48.5 -18.5t-31.5 -35t-11.5 -54v-8q-1 -51 26 -78t83 -27zM117 675h212v-40h-212v40z" />
    <glyph glyph-name="Abreve" unicode="&#x102;" horiz-adv-x="531" 
d="M394 206h-260l-57 -206h-49l201 715h74l201 -715h-53zM245 604l-99 -356h236l-99 356l-19 79zM261 767q-45 0 -76 30t-34 79h40q4 -30 22 -48.5t48 -18.5q31 0 50 18.5t23 48.5h40q-3 -49 -35.5 -79t-77.5 -30z" />
    <glyph glyph-name="abreve" unicode="&#x103;" horiz-adv-x="445" 
d="M190 -7q-71 0 -112 36.5t-41 107.5v9q0 42 16 71t43.5 47t64.5 25.5t79 7.5h92v68q0 63 -25.5 92.5t-83.5 29.5q-51 0 -82 -25t-35 -76h-50q2 37 16 64t37 45t52.5 26.5t63.5 8.5q73 0 115 -39t42 -126v-365h-50v70q-20 -35 -53.5 -56t-88.5 -21zM196 33q61 0 98.5 32.5
t37.5 87.5v106h-91q-34 0 -62.5 -5.5t-48.5 -18.5t-31.5 -35t-11.5 -54v-8q-1 -51 26 -78t83 -27zM222 608q-44 0 -74 30t-32 81h39q4 -32 20.5 -50t46.5 -18t48 18t22 50h40q-3 -51 -34 -81t-76 -30z" />
    <glyph glyph-name="Aogonek" unicode="&#x104;" horiz-adv-x="531" 
d="M386 -109q0 35 21.5 62.5t48.5 46.5h-5l-57 206h-260l-57 -206h-49l201 715h74l201 -715h-5q-30 -26 -47 -49.5t-17 -51.5q0 -19 11 -30t33 -11t41 8v-36q-22 -10 -48 -10q-40 0 -63 19.5t-23 51.5zM146 248h236l-118 424z" />
    <glyph glyph-name="aogonek" unicode="&#x105;" horiz-adv-x="445" 
d="M264 -109q0 35 22.5 62.5t49.5 46.5h-4v70q-20 -35 -53.5 -56t-88.5 -21q-71 0 -112 36.5t-41 107.5v9q0 42 16 71t43.5 47t64.5 25.5t79 7.5h92v68q0 63 -25.5 92.5t-83.5 29.5q-51 0 -82 -25t-35 -76h-50q2 37 16 64t37 45t52.5 26.5t63.5 8.5q73 0 115 -39t42 -126
v-365h-3q-30 -26 -48 -49.5t-18 -51.5q0 -19 11 -30t33 -11t41 8v-36q-22 -10 -48 -10q-40 0 -63 19.5t-23 51.5zM196 33q61 0 98.5 32.5t37.5 87.5v106h-91q-34 0 -62.5 -5.5t-48.5 -18.5t-31.5 -35t-11.5 -54v-8q-1 -51 26 -78t83 -27z" />
    <glyph glyph-name="Cacute" unicode="&#x106;" horiz-adv-x="578" 
d="M306 -8q-60 0 -108 20t-81.5 57.5t-51.5 91t-18 119.5v154q0 65 19.5 118.5t54 91.5t81.5 58.5t103 20.5q45 0 85 -12.5t70.5 -38t50 -63t23.5 -88.5h-53q-8 80 -54 119.5t-122 39.5q-45 0 -82.5 -17t-64.5 -49t-41.5 -77.5t-14.5 -102.5v-153q0 -115 53 -180t151 -65
q76 0 127 42.5t58 131.5h50q-5 -56 -24.5 -97t-50.5 -68t-72 -40t-88 -13zM335 884h62l-77 -116h-40z" />
    <glyph glyph-name="cacute" unicode="&#x107;" horiz-adv-x="458" 
d="M271 739h62l-82 -140h-39zM241 -7q-44 0 -81 14.5t-63.5 42.5t-41.5 68t-15 91v104q0 50 15 90.5t42 68.5t63.5 43t79.5 15q36 0 67.5 -9.5t55.5 -29t39 -50t18 -71.5h-49q-5 62 -41.5 90t-89.5 28q-68 0 -108.5 -46t-40.5 -129v-104q0 -85 41 -129.5t109 -44.5
q55 0 93.5 32t41.5 99h48q-5 -83 -55 -128t-128 -45z" />
    <glyph glyph-name="Ccircumflex" unicode="&#x108;" horiz-adv-x="578" 
d="M283 883h48l92 -115h-39l-78 73l-79 -73h-38zM306 -8q-60 0 -108 20t-81.5 57.5t-51.5 91t-18 119.5v154q0 65 19.5 118.5t54 91.5t81.5 58.5t103 20.5q45 0 85 -12.5t70.5 -38t50 -63t23.5 -88.5h-53q-8 80 -54 119.5t-122 39.5q-45 0 -82.5 -17t-64.5 -49t-41.5 -77.5
t-14.5 -102.5v-153q0 -115 53 -180t151 -65q76 0 127 42.5t58 131.5h50q-5 -56 -24.5 -97t-50.5 -68t-72 -40t-88 -13z" />
    <glyph glyph-name="ccircumflex" unicode="&#x109;" horiz-adv-x="458" 
d="M214 729h48l93 -130h-41l-76 87l-77 -87h-40zM241 -7q-44 0 -81 14.5t-63.5 42.5t-41.5 68t-15 91v104q0 50 15 90.5t42 68.5t63.5 43t79.5 15q36 0 67.5 -9.5t55.5 -29t39 -50t18 -71.5h-49q-5 62 -41.5 90t-89.5 28q-68 0 -108.5 -46t-40.5 -129v-104q0 -85 41 -129.5
t109 -44.5q55 0 93.5 32t41.5 99h48q-5 -83 -55 -128t-128 -45z" />
    <glyph glyph-name="Cdotaccent" unicode="&#x10a;" horiz-adv-x="578" 
d="M306 -8q-60 0 -108 20t-81.5 57.5t-51.5 91t-18 119.5v154q0 65 19.5 118.5t54 91.5t81.5 58.5t103 20.5q45 0 85 -12.5t70.5 -38t50 -63t23.5 -88.5h-53q-8 80 -54 119.5t-122 39.5q-45 0 -82.5 -17t-64.5 -49t-41.5 -77.5t-14.5 -102.5v-153q0 -115 53 -180t151 -65
q76 0 127 42.5t58 131.5h50q-5 -56 -24.5 -97t-50.5 -68t-72 -40t-88 -13zM304 782q-14 0 -24.5 10t-10.5 24q0 15 10.5 25.5t24.5 10.5t24.5 -10.5t10.5 -25.5q0 -14 -10.5 -24t-24.5 -10z" />
    <glyph glyph-name="cdotaccent" unicode="&#x10b;" horiz-adv-x="458" 
d="M241 -7q-44 0 -81 14.5t-63.5 42.5t-41.5 68t-15 91v104q0 50 15 90.5t42 68.5t63.5 43t79.5 15q36 0 67.5 -9.5t55.5 -29t39 -50t18 -71.5h-49q-5 62 -41.5 90t-89.5 28q-68 0 -108.5 -46t-40.5 -129v-104q0 -85 41 -129.5t109 -44.5q55 0 93.5 32t41.5 99h48
q-5 -83 -55 -128t-128 -45zM238 624q-14 0 -24.5 10.5t-10.5 24.5t10.5 24.5t24.5 10.5t24.5 -10.5t10.5 -24.5t-10.5 -24.5t-24.5 -10.5z" />
    <glyph glyph-name="Ccaron" unicode="&#x10c;" horiz-adv-x="578" 
d="M188 883h40l78 -74l79 74h39l-95 -115h-48zM306 -8q-60 0 -108 20t-81.5 57.5t-51.5 91t-18 119.5v154q0 65 19.5 118.5t54 91.5t81.5 58.5t103 20.5q45 0 85 -12.5t70.5 -38t50 -63t23.5 -88.5h-53q-8 80 -54 119.5t-122 39.5q-45 0 -82.5 -17t-64.5 -49t-41.5 -77.5
t-14.5 -102.5v-153q0 -115 53 -180t151 -65q76 0 127 42.5t58 131.5h50q-5 -56 -24.5 -97t-50.5 -68t-72 -40t-88 -13z" />
    <glyph glyph-name="ccaron" unicode="&#x10d;" horiz-adv-x="458" 
d="M120 735h41l76 -88l77 88h40l-93 -131h-48zM241 -7q-44 0 -81 14.5t-63.5 42.5t-41.5 68t-15 91v104q0 50 15 90.5t42 68.5t63.5 43t79.5 15q36 0 67.5 -9.5t55.5 -29t39 -50t18 -71.5h-49q-5 62 -41.5 90t-89.5 28q-68 0 -108.5 -46t-40.5 -129v-104q0 -85 41 -129.5
t109 -44.5q55 0 93.5 32t41.5 99h48q-5 -83 -55 -128t-128 -45z" />
    <glyph glyph-name="Emacron" unicode="&#x112;" horiz-adv-x="471" 
d="M74 715h341v-43h-289v-276h235v-43h-235v-310h304v-43h-356v715zM134 827h218v-41h-218v41z" />
    <glyph glyph-name="emacron" unicode="&#x113;" horiz-adv-x="461" 
d="M240 -7q-95 0 -147.5 58.5t-52.5 158.5v103q0 49 14 89t39.5 68.5t61.5 44t80 15.5q41 0 75.5 -13t59 -39t38.5 -65.5t14 -92.5v-62h-331v-48q0 -83 37 -129t112 -46q57 0 90.5 26.5t40.5 79.5h49q-8 -74 -56 -111t-124 -37zM91 299h280v28q0 84 -36.5 122.5t-99.5 38.5
q-65 0 -104.5 -45t-39.5 -130v-14zM128 675h212v-40h-212v40z" />
    <glyph glyph-name="Ebreve" unicode="&#x114;" horiz-adv-x="471" 
d="M74 715h341v-43h-289v-276h235v-43h-235v-310h304v-43h-356v715zM245 767q-45 0 -76 30t-34 79h40q4 -30 22 -48.5t48 -18.5q31 0 50 18.5t23 48.5h40q-3 -49 -35.5 -79t-77.5 -30z" />
    <glyph glyph-name="ebreve" unicode="&#x115;" horiz-adv-x="461" 
d="M240 -7q-95 0 -147.5 58.5t-52.5 158.5v103q0 49 14 89t39.5 68.5t61.5 44t80 15.5q41 0 75.5 -13t59 -39t38.5 -65.5t14 -92.5v-62h-331v-48q0 -83 37 -129t112 -46q57 0 90.5 26.5t40.5 79.5h49q-8 -74 -56 -111t-124 -37zM91 299h280v28q0 84 -36.5 122.5t-99.5 38.5
q-65 0 -104.5 -45t-39.5 -130v-14zM230 608q-44 0 -74 30t-32 81h39q4 -32 20.5 -50t46.5 -18t48 18t22 50h40q-3 -51 -34 -81t-76 -30z" />
    <glyph glyph-name="Edotaccent" unicode="&#x116;" horiz-adv-x="471" 
d="M243 782q-14 0 -24.5 10t-10.5 24q0 15 10.5 25.5t24.5 10.5t24.5 -10.5t10.5 -25.5q0 -14 -10.5 -24t-24.5 -10zM74 715h341v-43h-289v-276h235v-43h-235v-310h304v-43h-356v715z" />
    <glyph glyph-name="edotaccent" unicode="&#x117;" horiz-adv-x="461" 
d="M240 -7q-95 0 -147.5 58.5t-52.5 158.5v103q0 49 14 89t39.5 68.5t61.5 44t80 15.5q41 0 75.5 -13t59 -39t38.5 -65.5t14 -92.5v-62h-331v-48q0 -83 37 -129t112 -46q57 0 90.5 26.5t40.5 79.5h49q-8 -74 -56 -111t-124 -37zM91 299h280v28q0 84 -36.5 122.5t-99.5 38.5
q-65 0 -104.5 -45t-39.5 -130v-14zM234 624q-14 0 -24.5 10.5t-10.5 24.5t10.5 24.5t24.5 10.5t24.5 -10.5t10.5 -24.5t-10.5 -24.5t-24.5 -10.5z" />
    <glyph glyph-name="Eogonek" unicode="&#x118;" horiz-adv-x="471" 
d="M268 -109q0 35 21.5 62.5t48.5 46.5h-264v715h341v-43h-289v-276h235v-43h-235v-310h304v-43h-49q-30 -26 -47 -49.5t-17 -51.5q0 -19 11 -30t33 -11t41 8v-36q-22 -10 -48 -10q-40 0 -63 19.5t-23 51.5z" />
    <glyph glyph-name="eogonek" unicode="&#x119;" horiz-adv-x="461" 
d="M360 -170q-22 -10 -48 -10q-40 0 -63 19.5t-23 51.5q0 35 21 62.5t47 44.5q-28 -5 -54 -5q-95 0 -147.5 58.5t-52.5 158.5v103q0 49 14 89t39.5 68.5t61.5 44t80 15.5q41 0 75.5 -13t59 -39t38.5 -65.5t14 -92.5v-62h-331v-48q0 -83 37 -129t112 -46q57 0 90.5 26.5
t40.5 79.5h49q-4 -35 -17.5 -63.5t-48.5 -61.5q-12 -11 -26 -24t-26 -27t-19.5 -30.5t-7.5 -35.5t11 -30t33 -11t41 8v-36zM91 299h280v28q0 84 -36.5 122.5t-99.5 38.5q-65 0 -104.5 -45t-39.5 -130v-14z" />
    <glyph glyph-name="Ecaron" unicode="&#x11a;" horiz-adv-x="471" 
d="M127 883h40l78 -74l79 74h39l-95 -115h-48zM74 715h341v-43h-289v-276h235v-43h-235v-310h304v-43h-356v715z" />
    <glyph glyph-name="ecaron" unicode="&#x11b;" horiz-adv-x="461" 
d="M117 735h41l76 -88l77 88h40l-93 -131h-48zM240 -7q-95 0 -147.5 58.5t-52.5 158.5v103q0 49 14 89t39.5 68.5t61.5 44t80 15.5q41 0 75.5 -13t59 -39t38.5 -65.5t14 -92.5v-62h-331v-48q0 -83 37 -129t112 -46q57 0 90.5 26.5t40.5 79.5h49q-8 -74 -56 -111t-124 -37z
M91 299h280v28q0 84 -36.5 122.5t-99.5 38.5q-65 0 -104.5 -45t-39.5 -130v-14z" />
    <glyph glyph-name="Gcircumflex" unicode="&#x11c;" horiz-adv-x="602" 
d="M286 883h48l92 -115h-39l-78 73l-79 -73h-38zM338 349h217v-100q0 -128 -65 -192.5t-177 -64.5q-64 0 -113.5 20.5t-83.5 58.5t-51.5 90.5t-17.5 117.5v156q0 65 19 118t54 91t83 58.5t107 20.5q44 0 83.5 -11t70.5 -35t50.5 -61t24.5 -89h-53q-5 41 -19.5 70t-37.5 47.5
t-53 27t-65 8.5q-49 0 -87.5 -17.5t-65.5 -49.5t-41.5 -77t-14.5 -101v-155q0 -113 53.5 -178.5t157.5 -65.5q96 0 143.5 54.5t47.5 156.5v59h-166v43z" />
    <glyph glyph-name="gcircumflex" unicode="&#x11d;" horiz-adv-x="505" 
d="M216 729h48l93 -130h-41l-76 87l-77 -87h-40zM241 -184q-47 0 -81.5 11t-58 30t-37 44.5t-16.5 55.5h51q6 -46 40.5 -72.5t100.5 -26.5q68 0 108 35.5t40 115.5v102q-9 -20 -24 -38.5t-35 -33t-45.5 -23t-55.5 -8.5q-42 0 -76 14t-59 40t-38.5 64.5t-13.5 87.5v106
q0 48 14.5 87t40 66t61 42t77.5 15q31 0 56 -8t44 -22t32.5 -32t21.5 -37v92h51v-516q0 -50 -14.5 -86t-40.5 -59t-62.5 -34.5t-80.5 -11.5zM235 50q32 0 60 11.5t49 33t33 52.5t12 71v100q0 81 -40.5 125.5t-108.5 44.5q-67 0 -107.5 -43.5t-40.5 -124.5v-106
q0 -82 40 -123t103 -41z" />
    <glyph glyph-name="Gbreve" unicode="&#x11e;" horiz-adv-x="602" 
d="M307 767q-45 0 -76 30t-34 79h40q4 -30 22 -48.5t48 -18.5q31 0 50 18.5t23 48.5h40q-3 -49 -35.5 -79t-77.5 -30zM338 349h217v-100q0 -128 -65 -192.5t-177 -64.5q-64 0 -113.5 20.5t-83.5 58.5t-51.5 90.5t-17.5 117.5v156q0 65 19 118t54 91t83 58.5t107 20.5
q44 0 83.5 -11t70.5 -35t50.5 -61t24.5 -89h-53q-5 41 -19.5 70t-37.5 47.5t-53 27t-65 8.5q-49 0 -87.5 -17.5t-65.5 -49.5t-41.5 -77t-14.5 -101v-155q0 -113 53.5 -178.5t157.5 -65.5q96 0 143.5 54.5t47.5 156.5v59h-166v43z" />
    <glyph glyph-name="gbreve" unicode="&#x11f;" horiz-adv-x="505" 
d="M241 -184q-47 0 -81.5 11t-58 30t-37 44.5t-16.5 55.5h51q6 -46 40.5 -72.5t100.5 -26.5q68 0 108 35.5t40 115.5v102q-9 -20 -24 -38.5t-35 -33t-45.5 -23t-55.5 -8.5q-42 0 -76 14t-59 40t-38.5 64.5t-13.5 87.5v106q0 48 14.5 87t40 66t61 42t77.5 15q31 0 56 -8
t44 -22t32.5 -32t21.5 -37v92h51v-516q0 -50 -14.5 -86t-40.5 -59t-62.5 -34.5t-80.5 -11.5zM235 50q32 0 60 11.5t49 33t33 52.5t12 71v100q0 81 -40.5 125.5t-108.5 44.5q-67 0 -107.5 -43.5t-40.5 -124.5v-106q0 -82 40 -123t103 -41zM239 608q-44 0 -74 30t-32 81h39
q4 -32 20.5 -50t46.5 -18t48 18t22 50h40q-3 -51 -34 -81t-76 -30z" />
    <glyph glyph-name="Gdotaccent" unicode="&#x120;" horiz-adv-x="602" 
d="M308 782q-14 0 -24.5 10t-10.5 24q0 15 10.5 25.5t24.5 10.5t24.5 -10.5t10.5 -25.5q0 -14 -10.5 -24t-24.5 -10zM338 349h217v-100q0 -128 -65 -192.5t-177 -64.5q-64 0 -113.5 20.5t-83.5 58.5t-51.5 90.5t-17.5 117.5v156q0 65 19 118t54 91t83 58.5t107 20.5
q44 0 83.5 -11t70.5 -35t50.5 -61t24.5 -89h-53q-5 41 -19.5 70t-37.5 47.5t-53 27t-65 8.5q-49 0 -87.5 -17.5t-65.5 -49.5t-41.5 -77t-14.5 -101v-155q0 -113 53.5 -178.5t157.5 -65.5q96 0 143.5 54.5t47.5 156.5v59h-166v43z" />
    <glyph glyph-name="gdotaccent" unicode="&#x121;" horiz-adv-x="505" 
d="M241 -184q-47 0 -81.5 11t-58 30t-37 44.5t-16.5 55.5h51q6 -46 40.5 -72.5t100.5 -26.5q68 0 108 35.5t40 115.5v102q-9 -20 -24 -38.5t-35 -33t-45.5 -23t-55.5 -8.5q-42 0 -76 14t-59 40t-38.5 64.5t-13.5 87.5v106q0 48 14.5 87t40 66t61 42t77.5 15q31 0 56 -8
t44 -22t32.5 -32t21.5 -37v92h51v-516q0 -50 -14.5 -86t-40.5 -59t-62.5 -34.5t-80.5 -11.5zM235 50q32 0 60 11.5t49 33t33 52.5t12 71v100q0 81 -40.5 125.5t-108.5 44.5q-67 0 -107.5 -43.5t-40.5 -124.5v-106q0 -82 40 -123t103 -41zM240 624q-14 0 -24.5 10.5
t-10.5 24.5t10.5 24.5t24.5 10.5t24.5 -10.5t10.5 -24.5t-10.5 -24.5t-24.5 -10.5z" />
    <glyph glyph-name="uni0122" unicode="&#x122;" horiz-adv-x="604" 
d="M247 -173l46 133l50 -12l-63 -135zM338 349h217v-100q0 -128 -65 -192.5t-177 -64.5q-64 0 -113.5 20.5t-83.5 58.5t-51.5 90.5t-17.5 117.5v156q0 65 19 118t54 91t83 58.5t107 20.5q44 0 83.5 -11t70.5 -35t50.5 -61t24.5 -89h-53q-5 41 -19.5 70t-37.5 47.5t-53 27
t-65 8.5q-49 0 -87.5 -17.5t-65.5 -49.5t-41.5 -77t-14.5 -101v-155q0 -113 53.5 -178.5t157.5 -65.5q96 0 143.5 54.5t47.5 156.5v59h-166v43z" />
    <glyph glyph-name="uni0123" unicode="&#x123;" horiz-adv-x="502" 
d="M216 620l63 135l32 -14l-46 -133zM241 -184q-47 0 -81.5 11t-58 30t-37 44.5t-16.5 55.5h51q6 -46 40.5 -72.5t100.5 -26.5q68 0 108 35.5t40 115.5v102q-9 -20 -24 -38.5t-35 -33t-45.5 -23t-55.5 -8.5q-42 0 -76 14t-59 40t-38.5 64.5t-13.5 87.5v106q0 48 14.5 87
t40 66t61 42t77.5 15q31 0 56 -8t44 -22t32.5 -32t21.5 -37v92h51v-516q0 -50 -14.5 -86t-40.5 -59t-62.5 -34.5t-80.5 -11.5zM235 50q32 0 60 11.5t49 33t33 52.5t12 71v100q0 81 -40.5 125.5t-108.5 44.5q-67 0 -107.5 -43.5t-40.5 -124.5v-106q0 -82 40 -123t103 -41z
" />
    <glyph glyph-name="Hcircumflex" unicode="&#x124;" horiz-adv-x="580" 
d="M74 715h52v-333h328v333h52v-715h-52v337h-328v-337h-52v715zM267 883h48l92 -115h-39l-78 73l-79 -73h-38z" />
    <glyph glyph-name="hcircumflex" unicode="&#x125;" horiz-adv-x="481" 
d="M66 763h50v-326q15 36 53.5 64.5t97.5 28.5q69 0 110.5 -41.5t41.5 -133.5v-355h-50v357q0 67 -29 98.5t-85 31.5q-28 0 -53.5 -9.5t-44.5 -27t-30 -43t-11 -57.5v-350h-50v763zM225 922h48l92 -115h-39l-78 73l-79 -73h-38z" />
    <glyph glyph-name="Itilde" unicode="&#x128;" horiz-adv-x="209" 
d="M78 715h53v-715h-53v715zM159 770q-15 0 -29.5 7t-27.5 15t-25.5 15t-23.5 7q-15 0 -25 -12t-14 -33h-37q5 42 25.5 65t49.5 23q16 0 30 -7t27.5 -15t25.5 -15t23 -7q14 0 24.5 12t13.5 34h37q-5 -42 -25 -65.5t-49 -23.5z" />
    <glyph glyph-name="itilde" unicode="&#x129;" horiz-adv-x="186" 
d="M68 523h50v-523h-50v523zM146 617q-15 0 -29.5 7t-27.5 16t-25 16t-23 7q-14 0 -24 -12.5t-14 -34.5h-37q5 43 25.5 66.5t49.5 23.5q15 0 29.5 -7t27.5 -15.5t25 -15.5t23 -7q14 0 24 12.5t14 34.5h36q-4 -43 -24.5 -67t-49.5 -24z" />
    <glyph glyph-name="Imacron" unicode="&#x12a;" horiz-adv-x="209" 
d="M78 715h53v-715h-53v715zM-5 827h218v-41h-218v41z" />
    <glyph glyph-name="imacron" unicode="&#x12b;" horiz-adv-x="186" 
d="M15 675h155v-40h-155v40zM68 523h50v-523h-50v523z" />
    <glyph glyph-name="Ibreve" unicode="&#x12c;" horiz-adv-x="209" 
d="M78 715h53v-715h-53v715zM104 767q-45 0 -76 30t-34 79h40q4 -30 22 -48.5t48 -18.5q31 0 50 18.5t23 48.5h40q-3 -49 -35.5 -79t-77.5 -30z" />
    <glyph glyph-name="ibreve" unicode="&#x12d;" horiz-adv-x="186" 
d="M68 523h50v-523h-50v523zM92 608q-44 0 -74 30t-32 81h39q4 -32 20.5 -50t46.5 -18t48 18t22 50h40q-3 -51 -34 -81t-76 -30z" />
    <glyph glyph-name="Iogonek" unicode="&#x12e;" horiz-adv-x="209" 
d="M22 -109q0 35 20.5 61.5t44.5 47.5h-9v715h53v-715q-27 -27 -43.5 -50t-16.5 -51q0 -19 11 -30t33 -11t41 8v-36q-22 -10 -48 -10q-40 0 -63 19.5t-23 51.5z" />
    <glyph glyph-name="iogonek" unicode="&#x12f;" horiz-adv-x="186" 
d="M92 625q-14 0 -24 10t-10 24t10 24.5t24 10.5q15 0 25 -10.5t10 -24.5t-10 -24t-25 -10zM12 -109q0 35 20.5 61.5t43.5 47.5h-8v523h50v-523q-27 -29 -42 -51t-15 -50q0 -19 11 -30t33 -11t41 8v-36q-22 -10 -48 -10q-40 0 -63 19.5t-23 51.5z" />
    <glyph glyph-name="Idotaccent" unicode="&#x130;" horiz-adv-x="209" 
d="M78 715h53v-715h-53v715zM104 782q-14 0 -24.5 10t-10.5 24q0 15 10.5 25.5t24.5 10.5t24.5 -10.5t10.5 -25.5q0 -14 -10.5 -24t-24.5 -10z" />
    <glyph glyph-name="dotlessi" unicode="&#x131;" horiz-adv-x="186" 
d="M68 523h50v-523h-50v523z" />
    <glyph glyph-name="uni0136" unicode="&#x136;" horiz-adv-x="497" 
d="M195 -173l46 133l50 -12l-63 -135zM74 715h52v-715h-52v715zM416 0l-289 367l279 348h58l-279 -343l292 -372h-61z" />
    <glyph glyph-name="uni0137" unicode="&#x137;" horiz-adv-x="412" 
d="M152 -173l46 133l50 -12l-63 -135zM116 276v-276h-50v763h50v-487l213 247h57l-212 -245l224 -278h-60z" />
    <glyph glyph-name="Lacute" unicode="&#x139;" horiz-adv-x="438" 
d="M132 884h62l-77 -116h-40zM74 715h52v-672h282v-43h-334v715z" />
    <glyph glyph-name="lacute" unicode="&#x13a;" horiz-adv-x="187" 
d="M126 923h62l-77 -116h-40zM68 763h51v-763h-51v763z" />
    <glyph glyph-name="uni013B" unicode="&#x13b;" horiz-adv-x="438" 
d="M174 -173l46 133l50 -12l-63 -135zM74 715h52v-672h282v-43h-334v715z" />
    <glyph glyph-name="uni013C" unicode="&#x13c;" horiz-adv-x="186" 
d="M29 -173l46 133l50 -12l-63 -135zM68 763h51v-763h-51v763z" />
    <glyph glyph-name="Nacute" unicode="&#x143;" horiz-adv-x="580" 
d="M327 884h62l-77 -116h-40zM74 715h69l285 -562l31 -70l-1 74v558h49v-715h-61l-293 585l-31 68l1 -72v-581h-49v715z" />
    <glyph glyph-name="nacute" unicode="&#x144;" horiz-adv-x="481" 
d="M273 739h62l-82 -140h-39zM66 523h50v-86q15 36 53.5 64.5t97.5 28.5q69 0 110.5 -41.5t41.5 -133.5v-355h-50v357q0 67 -29 98.5t-85 31.5q-28 0 -53.5 -9.5t-44.5 -27t-30 -43t-11 -57.5v-350h-50v523z" />
    <glyph glyph-name="uni0145" unicode="&#x145;" horiz-adv-x="579" 
d="M219 -173l46 133l50 -12l-63 -135zM74 715h69l285 -562l31 -70l-1 74v558h49v-715h-61l-293 585l-31 68l1 -72v-581h-49v715z" />
    <glyph glyph-name="uni0146" unicode="&#x146;" horiz-adv-x="480" 
d="M177 -173l46 133l50 -12l-63 -135zM66 523h50v-86q15 36 53.5 64.5t97.5 28.5q69 0 110.5 -41.5t41.5 -133.5v-355h-50v357q0 67 -29 98.5t-85 31.5q-28 0 -53.5 -9.5t-44.5 -27t-30 -43t-11 -57.5v-350h-50v523z" />
    <glyph glyph-name="Ncaron" unicode="&#x147;" horiz-adv-x="580" 
d="M180 883h40l78 -74l79 74h39l-95 -115h-48zM74 715h69l285 -562l31 -70l-1 74v558h49v-715h-61l-293 585l-31 68l1 -72v-581h-49v715z" />
    <glyph glyph-name="ncaron" unicode="&#x148;" horiz-adv-x="481" 
d="M123 735h41l76 -88l77 88h40l-93 -131h-48zM66 523h50v-86q15 36 53.5 64.5t97.5 28.5q69 0 110.5 -41.5t41.5 -133.5v-355h-50v357q0 67 -29 98.5t-85 31.5q-28 0 -53.5 -9.5t-44.5 -27t-30 -43t-11 -57.5v-350h-50v523z" />
    <glyph glyph-name="Omacron" unicode="&#x14c;" horiz-adv-x="633" 
d="M208 827h218v-41h-218v41zM318 -8q-60 0 -110 21.5t-85 59.5t-54.5 90.5t-19.5 115.5v156q0 63 19.5 116t54.5 91.5t84.5 59.5t109.5 21t109 -21t84 -59t54.5 -90.5t19.5 -115.5v-155q0 -63 -19.5 -116.5t-54.5 -92t-84 -60t-108 -21.5zM318 37q49 0 88 18t66.5 50
t42.5 77.5t15 99.5v154q0 53 -14.5 97.5t-42.5 77t-67.5 50.5t-88.5 18q-50 0 -89.5 -17.5t-67.5 -50t-42.5 -77.5t-14.5 -99v-155q0 -55 15.5 -99.5t43.5 -76.5t67.5 -49.5t88.5 -17.5z" />
    <glyph glyph-name="omacron" unicode="&#x14d;" horiz-adv-x="487" 
d="M137 675h212v-40h-212v40zM243 -7q-45 0 -82 15.5t-64 44t-42 68.5t-15 88v104q0 49 15.5 89t42.5 68t64.5 43.5t81.5 15.5t81.5 -15t64.5 -43t42 -68t15 -89v-104q0 -50 -15 -90t-42 -68t-64.5 -43.5t-82.5 -15.5zM243 35q69 0 111 46.5t42 127.5v104q0 82 -42 128
t-110 46q-34 0 -62 -12t-48.5 -34.5t-31.5 -55t-11 -72.5v-104q0 -80 41.5 -127t110.5 -47z" />
    <glyph glyph-name="Obreve" unicode="&#x14e;" horiz-adv-x="633" 
d="M315 767q-45 0 -76 30t-34 79h40q4 -30 22 -48.5t48 -18.5q31 0 50 18.5t23 48.5h40q-3 -49 -35.5 -79t-77.5 -30zM318 -8q-60 0 -110 21.5t-85 59.5t-54.5 90.5t-19.5 115.5v156q0 63 19.5 116t54.5 91.5t84.5 59.5t109.5 21t109 -21t84 -59t54.5 -90.5t19.5 -115.5
v-155q0 -63 -19.5 -116.5t-54.5 -92t-84 -60t-108 -21.5zM318 37q49 0 88 18t66.5 50t42.5 77.5t15 99.5v154q0 53 -14.5 97.5t-42.5 77t-67.5 50.5t-88.5 18q-50 0 -89.5 -17.5t-67.5 -50t-42.5 -77.5t-14.5 -99v-155q0 -55 15.5 -99.5t43.5 -76.5t67.5 -49.5t88.5 -17.5z
" />
    <glyph glyph-name="obreve" unicode="&#x14f;" horiz-adv-x="487" 
d="M243 -7q-45 0 -82 15.5t-64 44t-42 68.5t-15 88v104q0 49 15.5 89t42.5 68t64.5 43.5t81.5 15.5t81.5 -15t64.5 -43t42 -68t15 -89v-104q0 -50 -15 -90t-42 -68t-64.5 -43.5t-82.5 -15.5zM243 35q69 0 111 46.5t42 127.5v104q0 82 -42 128t-110 46q-34 0 -62 -12
t-48.5 -34.5t-31.5 -55t-11 -72.5v-104q0 -80 41.5 -127t110.5 -47zM242 608q-44 0 -74 30t-32 81h39q4 -32 20.5 -50t46.5 -18t48 18t22 50h40q-3 -51 -34 -81t-76 -30z" />
    <glyph glyph-name="Ohungarumlaut" unicode="&#x150;" horiz-adv-x="633" 
d="M273 884h57l-56 -116h-37zM390 884h57l-56 -116h-38zM318 -8q-60 0 -110 21.5t-85 59.5t-54.5 90.5t-19.5 115.5v156q0 63 19.5 116t54.5 91.5t84.5 59.5t109.5 21t109 -21t84 -59t54.5 -90.5t19.5 -115.5v-155q0 -63 -19.5 -116.5t-54.5 -92t-84 -60t-108 -21.5zM318 37
q49 0 88 18t66.5 50t42.5 77.5t15 99.5v154q0 53 -14.5 97.5t-42.5 77t-67.5 50.5t-88.5 18q-50 0 -89.5 -17.5t-67.5 -50t-42.5 -77.5t-14.5 -99v-155q0 -55 15.5 -99.5t43.5 -76.5t67.5 -49.5t88.5 -17.5z" />
    <glyph glyph-name="ohungarumlaut" unicode="&#x151;" horiz-adv-x="487" 
d="M206 739h56l-59 -140h-37zM322 739h57l-59 -140h-38zM243 -7q-45 0 -82 15.5t-64 44t-42 68.5t-15 88v104q0 49 15.5 89t42.5 68t64.5 43.5t81.5 15.5t81.5 -15t64.5 -43t42 -68t15 -89v-104q0 -50 -15 -90t-42 -68t-64.5 -43.5t-82.5 -15.5zM243 35q69 0 111 46.5
t42 127.5v104q0 82 -42 128t-110 46q-34 0 -62 -12t-48.5 -34.5t-31.5 -55t-11 -72.5v-104q0 -80 41.5 -127t110.5 -47z" />
    <glyph glyph-name="Racute" unicode="&#x154;" horiz-adv-x="509" 
d="M274 884h62l-77 -116h-40zM74 715h170q46 0 84.5 -10t66 -31.5t42.5 -54.5t15 -79v-25q0 -83 -42.5 -125t-111.5 -52l183 -338h-59l-178 334h-118v-334h-52v715zM248 376q73 0 112.5 32.5t39.5 106.5v25q0 72 -41.5 102t-113.5 30h-119v-296h122z" />
    <glyph glyph-name="racute" unicode="&#x155;" horiz-adv-x="293" 
d="M196 739h62l-82 -140h-39zM66 523h50v-93q18 42 53.5 69t95.5 29v-47q-32 -1 -59.5 -9.5t-47.5 -27t-31 -47.5t-11 -71v-326h-50v523z" />
    <glyph glyph-name="uni0156" unicode="&#x156;" horiz-adv-x="511" 
d="M190 -173l46 133l50 -12l-63 -135zM74 715h170q46 0 84.5 -10t66 -31.5t42.5 -54.5t15 -79v-25q0 -83 -42.5 -125t-111.5 -52l183 -338h-59l-178 334h-118v-334h-52v715zM248 376q73 0 112.5 32.5t39.5 106.5v25q0 72 -41.5 102t-113.5 30h-119v-296h122z" />
    <glyph glyph-name="uni0157" unicode="&#x157;" horiz-adv-x="293" 
d="M27 -173l46 133l50 -12l-63 -135zM66 523h50v-93q18 42 53.5 69t95.5 29v-47q-32 -1 -59.5 -9.5t-47.5 -27t-31 -47.5t-11 -71v-326h-50v523z" />
    <glyph glyph-name="Rcaron" unicode="&#x158;" horiz-adv-x="509" 
d="M127 883h40l78 -74l79 74h39l-95 -115h-48zM74 715h170q46 0 84.5 -10t66 -31.5t42.5 -54.5t15 -79v-25q0 -83 -42.5 -125t-111.5 -52l183 -338h-59l-178 334h-118v-334h-52v715zM248 376q73 0 112.5 32.5t39.5 106.5v25q0 72 -41.5 102t-113.5 30h-119v-296h122z" />
    <glyph glyph-name="rcaron" unicode="&#x159;" horiz-adv-x="293" 
d="M45 735h41l76 -88l77 88h40l-93 -131h-48zM66 523h50v-93q18 42 53.5 69t95.5 29v-47q-32 -1 -59.5 -9.5t-47.5 -27t-31 -47.5t-11 -71v-326h-50v523z" />
    <glyph glyph-name="Sacute" unicode="&#x15a;" horiz-adv-x="497" 
d="M253 -8q-53 0 -93 15t-66.5 41.5t-41 63.5t-16.5 82h52q2 -35 11.5 -64t29 -50t50 -32.5t74.5 -11.5q69 0 107.5 37t38.5 106q0 37 -9 63.5t-28.5 46.5t-49 35.5t-71.5 29.5q-45 15 -80 33t-58.5 41t-35.5 53t-12 71q0 39 13.5 70.5t37.5 54t58.5 34.5t76.5 12
q85 0 135.5 -43.5t55.5 -129.5h-49q-6 67 -42 98t-100 31t-100 -32.5t-36 -90.5q0 -30 7.5 -52.5t25.5 -40.5t47.5 -33t73.5 -30q47 -16 83 -34t60 -43t36 -59t12 -82q0 -92 -54 -141t-143 -49zM272 884h62l-77 -116h-40z" />
    <glyph glyph-name="sacute" unicode="&#x15b;" horiz-adv-x="398" 
d="M231 739h62l-82 -140h-39zM204 -8q-81 0 -126 41.5t-47 113.5h49q3 -53 33 -82.5t90 -29.5q55 0 82.5 25.5t27.5 71.5q0 24 -7 41t-21 30.5t-36 23.5t-53 21q-39 13 -67.5 26.5t-47 31t-27 40.5t-8.5 55q0 31 12 55t32.5 40.5t47 25t56.5 8.5q31 0 58.5 -8t48 -24.5
t33.5 -43t15 -62.5h-49q-5 50 -31.5 73t-74.5 23q-47 0 -74 -22.5t-27 -63.5q0 -22 6.5 -37.5t20.5 -28t36.5 -23t55.5 -21.5q35 -11 62.5 -23.5t47 -30.5t30 -42.5t10.5 -60.5q0 -64 -40.5 -103.5t-117.5 -39.5z" />
    <glyph glyph-name="Scircumflex" unicode="&#x15c;" horiz-adv-x="497" 
d="M220 883h48l92 -115h-39l-78 73l-79 -73h-38zM253 -8q-53 0 -93 15t-66.5 41.5t-41 63.5t-16.5 82h52q2 -35 11.5 -64t29 -50t50 -32.5t74.5 -11.5q69 0 107.5 37t38.5 106q0 37 -9 63.5t-28.5 46.5t-49 35.5t-71.5 29.5q-45 15 -80 33t-58.5 41t-35.5 53t-12 71
q0 39 13.5 70.5t37.5 54t58.5 34.5t76.5 12q85 0 135.5 -43.5t55.5 -129.5h-49q-6 67 -42 98t-100 31t-100 -32.5t-36 -90.5q0 -30 7.5 -52.5t25.5 -40.5t47.5 -33t73.5 -30q47 -16 83 -34t60 -43t36 -59t12 -82q0 -92 -54 -141t-143 -49z" />
    <glyph glyph-name="scircumflex" unicode="&#x15d;" horiz-adv-x="398" 
d="M174 729h48l93 -130h-41l-76 87l-77 -87h-40zM204 -8q-81 0 -126 41.5t-47 113.5h49q3 -53 33 -82.5t90 -29.5q55 0 82.5 25.5t27.5 71.5q0 24 -7 41t-21 30.5t-36 23.5t-53 21q-39 13 -67.5 26.5t-47 31t-27 40.5t-8.5 55q0 31 12 55t32.5 40.5t47 25t56.5 8.5
q31 0 58.5 -8t48 -24.5t33.5 -43t15 -62.5h-49q-5 50 -31.5 73t-74.5 23q-47 0 -74 -22.5t-27 -63.5q0 -22 6.5 -37.5t20.5 -28t36.5 -23t55.5 -21.5q35 -11 62.5 -23.5t47 -30.5t30 -42.5t10.5 -60.5q0 -64 -40.5 -103.5t-117.5 -39.5z" />
    <glyph glyph-name="Scedilla" unicode="&#x15e;" horiz-adv-x="499" 
d="M253 -8q-53 0 -93 15t-66.5 41.5t-41 63.5t-16.5 82h52q2 -35 11.5 -64t29 -50t50 -32.5t74.5 -11.5q69 0 107.5 37t38.5 106q0 37 -9 63.5t-28.5 46.5t-49 35.5t-71.5 29.5q-45 15 -80 33t-58.5 41t-35.5 53t-12 71q0 39 13.5 70.5t37.5 54t58.5 34.5t76.5 12
q85 0 135.5 -43.5t55.5 -129.5h-49q-6 67 -42 98t-100 31t-100 -32.5t-36 -90.5q0 -30 7.5 -52.5t25.5 -40.5t47.5 -33t73.5 -30q47 -16 83 -34t60 -43t36 -59t12 -82q0 -92 -54 -141t-143 -49zM241 -198q-38 0 -62 19.5t-28 52.5h38q2 -18 15 -29t35 -11t34.5 12t12.5 30
q0 22 -13 31t-31 9q-12 0 -20.5 -3t-12.5 -6l-21 19l42 74h35l-32 -57q17 4 34 1.5t30 -11t21 -23t8 -35.5q0 -36 -25 -54.5t-60 -18.5z" />
    <glyph glyph-name="scedilla" unicode="&#x15f;" horiz-adv-x="397" 
d="M204 -8q-81 0 -126 41.5t-47 113.5h49q3 -53 33 -82.5t90 -29.5q55 0 82.5 25.5t27.5 71.5q0 24 -7 41t-21 30.5t-36 23.5t-53 21q-39 13 -67.5 26.5t-47 31t-27 40.5t-8.5 55q0 31 12 55t32.5 40.5t47 25t56.5 8.5q31 0 58.5 -8t48 -24.5t33.5 -43t15 -62.5h-49
q-5 50 -31.5 73t-74.5 23q-47 0 -74 -22.5t-27 -63.5q0 -22 6.5 -37.5t20.5 -28t36.5 -23t55.5 -21.5q35 -11 62.5 -23.5t47 -30.5t30 -42.5t10.5 -60.5q0 -64 -40.5 -103.5t-117.5 -39.5zM196 -198q-38 0 -62 19.5t-28 52.5h38q2 -18 15 -29t35 -11t34.5 12t12.5 30
q0 22 -13 31t-31 9q-12 0 -20.5 -3t-12.5 -6l-21 19l42 74h35l-32 -57q17 4 34 1.5t30 -11t21 -23t8 -35.5q0 -36 -25 -54.5t-60 -18.5z" />
    <glyph glyph-name="Scaron" unicode="&#x160;" horiz-adv-x="497" 
d="M124 883h40l78 -74l79 74h39l-95 -115h-48zM253 -8q-53 0 -93 15t-66.5 41.5t-41 63.5t-16.5 82h52q2 -35 11.5 -64t29 -50t50 -32.5t74.5 -11.5q69 0 107.5 37t38.5 106q0 37 -9 63.5t-28.5 46.5t-49 35.5t-71.5 29.5q-45 15 -80 33t-58.5 41t-35.5 53t-12 71
q0 39 13.5 70.5t37.5 54t58.5 34.5t76.5 12q85 0 135.5 -43.5t55.5 -129.5h-49q-6 67 -42 98t-100 31t-100 -32.5t-36 -90.5q0 -30 7.5 -52.5t25.5 -40.5t47.5 -33t73.5 -30q47 -16 83 -34t60 -43t36 -59t12 -82q0 -92 -54 -141t-143 -49z" />
    <glyph glyph-name="scaron" unicode="&#x161;" horiz-adv-x="398" 
d="M80 735h41l76 -88l77 88h40l-93 -131h-48zM204 -8q-81 0 -126 41.5t-47 113.5h49q3 -53 33 -82.5t90 -29.5q55 0 82.5 25.5t27.5 71.5q0 24 -7 41t-21 30.5t-36 23.5t-53 21q-39 13 -67.5 26.5t-47 31t-27 40.5t-8.5 55q0 31 12 55t32.5 40.5t47 25t56.5 8.5
q31 0 58.5 -8t48 -24.5t33.5 -43t15 -62.5h-49q-5 50 -31.5 73t-74.5 23q-47 0 -74 -22.5t-27 -63.5q0 -22 6.5 -37.5t20.5 -28t36.5 -23t55.5 -21.5q35 -11 62.5 -23.5t47 -30.5t30 -42.5t10.5 -60.5q0 -64 -40.5 -103.5t-117.5 -39.5z" />
    <glyph glyph-name="uni0162" unicode="&#x162;" horiz-adv-x="458" 
d="M166 -174l46 134l50 -12l-63 -135zM203 672h-179v43h410v-43h-179v-672h-52v672z" />
    <glyph glyph-name="uni0163" unicode="&#x163;" horiz-adv-x="286" 
d="M95 -174l46 134l50 -12l-63 -135zM137 635v-112h113v-43h-113v-360q0 -45 17.5 -63.5t51.5 -18.5q29 0 48 8v-43q-8 -3 -21.5 -5.5t-31.5 -2.5q-115 0 -115 121v364h-66v43h66v112h51z" />
    <glyph glyph-name="Utilde" unicode="&#x168;" horiz-adv-x="557" 
d="M496 715v-493q0 -112 -54 -170.5t-163 -58.5q-100 0 -156.5 55t-56.5 166v501h53v-497q0 -95 41 -137.5t120 -42.5q80 0 121.5 43.5t41.5 145.5v488h53zM331 770q-15 0 -29.5 7t-27.5 15t-25.5 15t-23.5 7q-15 0 -25 -12t-14 -33h-37q5 42 25.5 65t49.5 23q16 0 30 -7
t27.5 -15t25.5 -15t23 -7q14 0 24.5 12t13.5 34h37q-5 -42 -25 -65.5t-49 -23.5z" />
    <glyph glyph-name="utilde" unicode="&#x169;" horiz-adv-x="477" 
d="M412 0h-51v84q-15 -37 -53.5 -64t-94.5 -27q-68 0 -109.5 39t-41.5 130v361h51v-359q0 -68 28 -97.5t84 -29.5q27 0 51.5 9t43 26t30 42.5t11.5 57.5v351h51v-523zM291 617q-15 0 -29.5 7t-27.5 16t-25 16t-23 7q-14 0 -24 -12.5t-14 -34.5h-37q5 43 25.5 66.5t49.5 23.5
q15 0 29.5 -7t27.5 -15.5t25 -15.5t23 -7q14 0 24 12.5t14 34.5h36q-4 -43 -24.5 -67t-49.5 -24z" />
    <glyph glyph-name="Umacron" unicode="&#x16a;" horiz-adv-x="557" 
d="M496 715v-493q0 -112 -54 -170.5t-163 -58.5q-100 0 -156.5 55t-56.5 166v501h53v-497q0 -95 41 -137.5t120 -42.5q80 0 121.5 43.5t41.5 145.5v488h53zM168 827h218v-41h-218v41z" />
    <glyph glyph-name="umacron" unicode="&#x16b;" horiz-adv-x="477" 
d="M412 0h-51v84q-15 -37 -53.5 -64t-94.5 -27q-68 0 -109.5 39t-41.5 130v361h51v-359q0 -68 28 -97.5t84 -29.5q27 0 51.5 9t43 26t30 42.5t11.5 57.5v351h51v-523zM133 675h212v-40h-212v40z" />
    <glyph glyph-name="Ubreve" unicode="&#x16c;" horiz-adv-x="557" 
d="M496 715v-493q0 -112 -54 -170.5t-163 -58.5q-100 0 -156.5 55t-56.5 166v501h53v-497q0 -95 41 -137.5t120 -42.5q80 0 121.5 43.5t41.5 145.5v488h53zM276 767q-45 0 -76 30t-34 79h40q4 -30 22 -48.5t48 -18.5q31 0 50 18.5t23 48.5h40q-3 -49 -35.5 -79t-77.5 -30z
" />
    <glyph glyph-name="ubreve" unicode="&#x16d;" horiz-adv-x="477" 
d="M412 0h-51v84q-15 -37 -53.5 -64t-94.5 -27q-68 0 -109.5 39t-41.5 130v361h51v-359q0 -68 28 -97.5t84 -29.5q27 0 51.5 9t43 26t30 42.5t11.5 57.5v351h51v-523zM237 608q-44 0 -74 30t-32 81h39q4 -32 20.5 -50t46.5 -18t48 18t22 50h40q-3 -51 -34 -81t-76 -30z" />
    <glyph glyph-name="Uring" unicode="&#x16e;" horiz-adv-x="557" 
d="M496 715v-493q0 -112 -54 -170.5t-163 -58.5q-100 0 -156.5 55t-56.5 166v501h53v-497q0 -95 41 -137.5t120 -42.5q80 0 121.5 43.5t41.5 145.5v488h53zM277 730q-36 0 -61 24.5t-25 59.5t25 59.5t61 24.5t61 -24.5t25 -59.5t-25 -59.5t-61 -24.5zM277 762q22 0 36 14.5
t14 37.5t-14 37.5t-36 14.5t-35.5 -14.5t-13.5 -37.5t13.5 -37.5t35.5 -14.5z" />
    <glyph glyph-name="uring" unicode="&#x16f;" horiz-adv-x="477" 
d="M237 588q-36 0 -61 24.5t-25 59.5t25 59.5t61 24.5t61 -24.5t25 -59.5t-25 -59.5t-61 -24.5zM237 619q21 0 35.5 15.5t14.5 37.5t-14.5 37t-35.5 15t-35 -15t-14 -37t14 -37.5t35 -15.5zM412 0h-51v84q-15 -37 -53.5 -64t-94.5 -27q-68 0 -109.5 39t-41.5 130v361h51
v-359q0 -68 28 -97.5t84 -29.5q27 0 51.5 9t43 26t30 42.5t11.5 57.5v351h51v-523z" />
    <glyph glyph-name="Uhungarumlaut" unicode="&#x170;" horiz-adv-x="557" 
d="M235 884h57l-56 -116h-37zM352 884h57l-56 -116h-38zM496 715v-493q0 -112 -54 -170.5t-163 -58.5q-100 0 -156.5 55t-56.5 166v501h53v-497q0 -95 41 -137.5t120 -42.5q80 0 121.5 43.5t41.5 145.5v488h53z" />
    <glyph glyph-name="uhungarumlaut" unicode="&#x171;" horiz-adv-x="477" 
d="M412 0h-51v84q-15 -37 -53.5 -64t-94.5 -27q-68 0 -109.5 39t-41.5 130v361h51v-359q0 -68 28 -97.5t84 -29.5q27 0 51.5 9t43 26t30 42.5t11.5 57.5v351h51v-523zM201 739h56l-59 -140h-37zM317 739h57l-59 -140h-38z" />
    <glyph glyph-name="Uogonek" unicode="&#x172;" horiz-adv-x="562" 
d="M317 -180q-40 0 -63 19.5t-23 51.5t18 58t44 44h-14q-100 0 -156.5 55t-56.5 166v501h53v-497q0 -95 41 -137.5t120 -42.5q80 0 121.5 43.5t41.5 145.5v488h53v-493q0 -47 -9.5 -82.5t-25.5 -61.5t-38.5 -43.5t-47.5 -28.5q-51 -23 -73 -50.5t-22 -56.5q0 -19 11 -30
t33 -11t41 8v-36q-22 -10 -48 -10z" />
    <glyph glyph-name="uogonek" unicode="&#x173;" horiz-adv-x="477" 
d="M295 -109q0 35 21.5 62.5t48.5 46.5h-4v84q-15 -37 -53.5 -64t-94.5 -27q-68 0 -109.5 39t-41.5 130v361h51v-359q0 -68 28 -97.5t84 -29.5q27 0 51.5 9t43 26t30 42.5t11.5 57.5v351h51v-523h-4q-30 -26 -47 -49.5t-17 -51.5q0 -19 11 -30t33 -11t41 8v-36
q-22 -10 -48 -10q-40 0 -63 19.5t-23 51.5z" />
    <glyph glyph-name="Wcircumflex" unicode="&#x174;" horiz-adv-x="759" 
d="M356 883h48l92 -115h-39l-78 73l-79 -73h-38zM28 715h53l115 -555l14 -74l16 74l135 555h41l131 -555l16 -76l14 76l119 555h49l-156 -715h-52l-128 542l-14 70l-15 -70l-135 -542h-51z" />
    <glyph glyph-name="wcircumflex" unicode="&#x175;" horiz-adv-x="648" 
d="M301 729h48l93 -130h-41l-76 87l-77 -87h-40zM24 523h54l95 -395l15 -71l16 71l103 395h40l99 -395l16 -71l15 71l96 395h51l-134 -523h-59l-89 366l-16 74l-17 -74l-96 -366h-58z" />
    <glyph glyph-name="Ycircumflex" unicode="&#x176;" horiz-adv-x="480" 
d="M218 316l-199 399h58l169 -346l161 346h53l-188 -400v-315h-54v316zM220 883h48l92 -115h-39l-78 73l-79 -73h-38z" />
    <glyph glyph-name="ycircumflex" unicode="&#x177;" horiz-adv-x="427" 
d="M193 182l25 -77l24 77l113 341h52l-241 -702h-51l78 223l-171 479h53zM190 729h48l93 -130h-41l-76 87l-77 -87h-40z" />
    <glyph glyph-name="Ydieresis" unicode="&#x178;" horiz-adv-x="480" 
d="M218 316l-199 399h58l169 -346l161 346h53l-188 -400v-315h-54v316zM164 783q-14 0 -23.5 9.5t-9.5 23.5t9.5 24t23.5 10t24 -10t10 -24t-10 -23.5t-24 -9.5zM322 783q-14 0 -24 9.5t-10 23.5t10 24t24 10t23.5 -10t9.5 -24t-9.5 -23.5t-23.5 -9.5z" />
    <glyph glyph-name="Zacute" unicode="&#x179;" horiz-adv-x="477" 
d="M273 884h62l-77 -116h-40zM22 10l352 661h-320v44h392v-9l-350 -662h344v-44h-418v10z" />
    <glyph glyph-name="zacute" unicode="&#x17a;" horiz-adv-x="392" 
d="M239 739h62l-82 -140h-39zM20 8l277 472h-251v43h324v-9l-273 -470h266v-44h-343v8z" />
    <glyph glyph-name="Zdotaccent" unicode="&#x17b;" horiz-adv-x="477" 
d="M22 10l352 661h-320v44h392v-9l-350 -662h344v-44h-418v10zM243 782q-14 0 -24.5 10t-10.5 24q0 15 10.5 25.5t24.5 10.5t24.5 -10.5t10.5 -25.5q0 -14 -10.5 -24t-24.5 -10z" />
    <glyph glyph-name="zdotaccent" unicode="&#x17c;" horiz-adv-x="392" 
d="M20 8l277 472h-251v43h324v-9l-273 -470h266v-44h-343v8zM205 624q-14 0 -24.5 10.5t-10.5 24.5t10.5 24.5t24.5 10.5t24.5 -10.5t10.5 -24.5t-10.5 -24.5t-24.5 -10.5z" />
    <glyph glyph-name="Zcaron" unicode="&#x17d;" horiz-adv-x="477" 
d="M125 883h40l78 -74l79 74h39l-95 -115h-48zM22 10l352 661h-320v44h392v-9l-350 -662h344v-44h-418v10z" />
    <glyph glyph-name="zcaron" unicode="&#x17e;" horiz-adv-x="392" 
d="M88 735h41l76 -88l77 88h40l-93 -131h-48zM20 8l277 472h-251v43h324v-9l-273 -470h266v-44h-343v8z" />
    <glyph glyph-name="Aringacute" unicode="&#x1fa;" horiz-adv-x="531" 
d="M394 206h-260l-57 -206h-49l201 715h74l201 -715h-53zM245 604l-99 -356h236l-99 356l-19 79zM297 1052h62l-77 -116h-40zM265 744q-36 0 -61 24.5t-25 59.5t25 59.5t61 24.5t61 -24.5t25 -59.5t-25 -59.5t-61 -24.5zM265 776q22 0 36 14.5t14 37.5t-14 37.5t-36 14.5
t-35.5 -14.5t-13.5 -37.5t13.5 -37.5t35.5 -14.5z" />
    <glyph glyph-name="aringacute" unicode="&#x1fb;" horiz-adv-x="445" 
d="M190 -7q-71 0 -112 36.5t-41 107.5v9q0 42 16 71t43.5 47t64.5 25.5t79 7.5h92v68q0 63 -25.5 92.5t-83.5 29.5q-51 0 -82 -25t-35 -76h-50q2 37 16 64t37 45t52.5 26.5t63.5 8.5q73 0 115 -39t42 -126v-365h-50v70q-20 -35 -53.5 -56t-88.5 -21zM196 33q61 0 98.5 32.5
t37.5 87.5v106h-91q-34 0 -62.5 -5.5t-48.5 -18.5t-31.5 -35t-11.5 -54v-8q-1 -51 26 -78t83 -27zM224 591q-36 0 -61 24.5t-25 59.5t25 59.5t61 24.5t61 -24.5t25 -59.5t-25 -59.5t-61 -24.5zM224 622q21 0 35.5 15.5t14.5 37.5t-14.5 37t-35.5 15t-35 -15t-14 -37
t14 -37.5t35 -15.5zM257 913h62l-77 -116h-40z" />
    <glyph glyph-name="uni0218" unicode="&#x218;" horiz-adv-x="499" 
d="M179 -173l46 133l50 -12l-63 -135zM253 -8q-53 0 -93 15t-66.5 41.5t-41 63.5t-16.5 82h52q2 -35 11.5 -64t29 -50t50 -32.5t74.5 -11.5q69 0 107.5 37t38.5 106q0 37 -9 63.5t-28.5 46.5t-49 35.5t-71.5 29.5q-45 15 -80 33t-58.5 41t-35.5 53t-12 71q0 39 13.5 70.5
t37.5 54t58.5 34.5t76.5 12q85 0 135.5 -43.5t55.5 -129.5h-49q-6 67 -42 98t-100 31t-100 -32.5t-36 -90.5q0 -30 7.5 -52.5t25.5 -40.5t47.5 -33t73.5 -30q47 -16 83 -34t60 -43t36 -59t12 -82q0 -92 -54 -141t-143 -49z" />
    <glyph glyph-name="uni0219" unicode="&#x219;" horiz-adv-x="397" 
d="M135 -173l46 133l50 -12l-63 -135zM204 -8q-81 0 -126 41.5t-47 113.5h49q3 -53 33 -82.5t90 -29.5q55 0 82.5 25.5t27.5 71.5q0 24 -7 41t-21 30.5t-36 23.5t-53 21q-39 13 -67.5 26.5t-47 31t-27 40.5t-8.5 55q0 31 12 55t32.5 40.5t47 25t56.5 8.5q31 0 58.5 -8
t48 -24.5t33.5 -43t15 -62.5h-49q-5 50 -31.5 73t-74.5 23q-47 0 -74 -22.5t-27 -63.5q0 -22 6.5 -37.5t20.5 -28t36.5 -23t55.5 -21.5q35 -11 62.5 -23.5t47 -30.5t30 -42.5t10.5 -60.5q0 -64 -40.5 -103.5t-117.5 -39.5z" />
    <glyph glyph-name="uni0401" unicode="&#x401;" horiz-adv-x="470" 
d="M74 715h341v-43h-289v-276h235v-43h-235v-310h304v-43h-356v715zM164 783q-14 0 -23.5 9.5t-9.5 23.5t9.5 24t23.5 10t24 -10t10 -24t-10 -23.5t-24 -9.5zM322 783q-14 0 -24 9.5t-10 23.5t10 24t24 10t23.5 -10t9.5 -24t-9.5 -23.5t-23.5 -9.5z" />
    <glyph glyph-name="uni0403" unicode="&#x403;" horiz-adv-x="436" 
d="M274 884h62l-77 -116h-40zM74 715h336v-43h-284v-672h-52v715z" />
    <glyph glyph-name="uni040E" unicode="&#x40e;" horiz-adv-x="498" 
d="M118 -5q-10 0 -17 0.5t-12 1.5q-6 1 -10 3v44q4 -2 10 -3q5 -1 12 -1.5t16 -0.5q22 0 37.5 7.5t28 21.5t23.5 35.5t23 50.5l-208 561h53l181 -495l176 495h49l-194 -540q-17 -45 -33 -79t-35.5 -56.5t-43.5 -33.5t-56 -11zM251 767q-44 0 -75 29.5t-34 79.5h40
q4 -32 21 -52t48 -20q32 0 50 20t22 52h40q-3 -50 -35 -79.5t-77 -29.5z" />
    <glyph glyph-name="uni0410" unicode="&#x410;" horiz-adv-x="531" 
d="M394 206h-260l-57 -206h-49l201 715h74l201 -715h-53zM245 604l-99 -356h236l-99 356l-19 79z" />
    <glyph glyph-name="uni0411" unicode="&#x411;" horiz-adv-x="498" 
d="M408 715v-43h-282v-263h119q46 0 84 -11t65 -34.5t42 -59.5t15 -85v-33q0 -50 -15 -85t-42.5 -57.5t-65.5 -33t-84 -10.5h-170v715h334zM126 43h121q70 0 111 31.5t41 111.5v33q0 77 -39.5 112.5t-111.5 35.5h-122v-324z" />
    <glyph glyph-name="uni0412" unicode="&#x412;" horiz-adv-x="509" 
d="M74 715h172q43 0 78 -9t60 -29t38.5 -51t13.5 -75v-33q0 -57 -28 -92t-82 -49q69 -12 103 -50.5t34 -110.5v-33q0 -94 -50.5 -138.5t-144.5 -44.5h-194v715zM246 395q72 0 105 31t33 94v32q0 65 -35 93t-104 28h-120v-278h121zM267 42q144 0 144 141v35q0 72 -39 103.5
t-120 31.5h-127v-311h142z" />
    <glyph glyph-name="uni0413" unicode="&#x413;" horiz-adv-x="436" 
d="M74 715h336v-43h-284v-672h-52v715z" />
    <glyph glyph-name="uni0414" unicode="&#x414;" horiz-adv-x="580" 
d="M50 -130h-45v173h42q12 13 21 34t15.5 47t11 55.5t6.5 60.5q2 37 4 77.5l4 81t3.5 80t2.5 74.5q3 83 5 162h370v-672h70v-173h-45l-4 130h-457zM149 240q-4 -63 -14.5 -114t-31.5 -83h335v629h-271q-1 -18 -2.5 -60.5t-3.5 -100.5t-5 -128t-7 -143z" />
    <glyph glyph-name="uni0415" unicode="&#x415;" horiz-adv-x="470" 
d="M74 715h341v-43h-289v-276h235v-43h-235v-310h304v-43h-356v715z" />
    <glyph glyph-name="uni0416" unicode="&#x416;" horiz-adv-x="743" 
d="M344 715h52v-715h-52v715zM662 0l-266 367l256 348h58l-256 -343l269 -372h-61zM287 370l-257 345h59l255 -348l-266 -367h-58z" />
    <glyph glyph-name="uni0417" unicode="&#x417;" horiz-adv-x="508" 
d="M385 550q0 60 -33.5 94t-102.5 34q-131 0 -146 -139h-49q8 88 58 136t137 48q89 0 139 -46.5t50 -126.5v-19q0 -24 -6 -47.5t-19.5 -44t-35 -36.5t-52.5 -25q73 -14 105 -58.5t32 -106.5v-19q0 -47 -15 -84.5t-43 -63.5t-67.5 -40t-88.5 -14q-53 0 -92 16t-65.5 43.5
t-40.5 65t-17 81.5h52q3 -35 13 -64t29.5 -51t49 -34t71.5 -12q80 0 120 41t40 116v19q0 65 -37 103.5t-125 38.5h-58v42h58q39 0 65.5 10.5t43 28.5t23.5 42.5t7 52.5v19z" />
    <glyph glyph-name="uni0418" unicode="&#x418;" horiz-adv-x="589" 
d="M74 0v715h52v-633l330 633h59v-715h-52v633l-330 -633h-59z" />
    <glyph glyph-name="uni0419" unicode="&#x419;" horiz-adv-x="589" 
d="M74 0v715h52v-633l330 633h59v-715h-52v633l-330 -633h-59zM293 767q-44 0 -75 29.5t-34 79.5h40q4 -32 21 -52t48 -20q32 0 50 20t22 52h40q-3 -50 -35 -79.5t-77 -29.5z" />
    <glyph glyph-name="uni041A" unicode="&#x41a;" horiz-adv-x="497" 
d="M74 715h52v-715h-52v715zM416 0l-289 367l279 348h58l-279 -343l292 -372h-61z" />
    <glyph glyph-name="uni041B" unicode="&#x41b;" horiz-adv-x="579" 
d="M166 227q-5 -114 -30 -174t-90 -60q-18 0 -27 3q-5 2 -9 4v49q4 -2 9 -3t10.5 -1.5t12.5 -0.5q40 0 55.5 45.5t20.5 141.5q4 86 6.5 171.5t4.5 155.5q2 81 3 157h373v-715h-52v672h-273q-1 -64 -3 -136q-2 -62 -4.5 -141.5t-6.5 -167.5z" />
    <glyph glyph-name="uni041C" unicode="&#x41c;" horiz-adv-x="695" 
d="M74 715h73l182 -548l17 -61l17 61l183 548h74v-715h-53v570l1 79l-24 -82l-191 -567h-17l-192 567l-23 82l1 -79v-570h-48v715z" />
    <glyph glyph-name="uni041D" unicode="&#x41d;" horiz-adv-x="579" 
d="M74 715h52v-333h328v333h52v-715h-52v337h-328v-337h-52v715z" />
    <glyph glyph-name="uni041E" unicode="&#x41e;" horiz-adv-x="635" 
d="M318 -8q-60 0 -110 21.5t-85 59.5t-54.5 90.5t-19.5 115.5v156q0 63 19.5 116t54.5 91.5t84.5 59.5t109.5 21t109 -21t84 -59t54.5 -90.5t19.5 -115.5v-155q0 -63 -19.5 -116.5t-54.5 -92t-84 -60t-108 -21.5zM318 37q49 0 88 18t66.5 50t42.5 77.5t15 99.5v154
q0 53 -14.5 97.5t-42.5 77t-67.5 50.5t-88.5 18q-50 0 -89.5 -17.5t-67.5 -50t-42.5 -77.5t-14.5 -99v-155q0 -55 15.5 -99.5t43.5 -76.5t67.5 -49.5t88.5 -17.5z" />
    <glyph glyph-name="uni041F" unicode="&#x41f;" horiz-adv-x="569" 
d="M126 0h-52v715h421v-715h-52v672h-317v-672z" />
    <glyph glyph-name="uni0420" unicode="&#x420;" horiz-adv-x="479" 
d="M74 715h163q46 0 84.5 -10t66 -32t42.5 -56.5t15 -83.5v-32q0 -48 -15 -83t-42.5 -57.5t-65.5 -33.5t-84 -11h-112v-316h-52v715zM241 358q72 0 111.5 34t39.5 109v32q0 78 -41 108.5t-112 30.5h-113v-314h115z" />
    <glyph glyph-name="uni0421" unicode="&#x421;" horiz-adv-x="580" 
d="M306 -8q-60 0 -108 20t-81.5 57.5t-51.5 91t-18 119.5v154q0 65 19.5 118.5t54 91.5t81.5 58.5t103 20.5q45 0 85 -12.5t70.5 -38t50 -63t23.5 -88.5h-53q-8 80 -54 119.5t-122 39.5q-45 0 -82.5 -17t-64.5 -49t-41.5 -77.5t-14.5 -102.5v-153q0 -115 53 -180t151 -65
q76 0 127 42.5t58 131.5h50q-5 -56 -24.5 -97t-50.5 -68t-72 -40t-88 -13z" />
    <glyph glyph-name="uni0422" unicode="&#x422;" horiz-adv-x="458" 
d="M203 672h-179v43h410v-43h-179v-672h-52v672z" />
    <glyph glyph-name="uni0423" unicode="&#x423;" horiz-adv-x="498" 
d="M118 -5q-10 0 -17 0.5t-12 1.5q-6 1 -10 3v44q4 -2 10 -3q5 -1 12 -1.5t16 -0.5q22 0 37.5 7.5t28 21.5t23.5 35.5t23 50.5l-208 561h53l181 -495l176 495h49l-194 -540q-17 -45 -33 -79t-35.5 -56.5t-43.5 -33.5t-56 -11z" />
    <glyph glyph-name="uni0424" unicode="&#x424;" horiz-adv-x="705" 
d="M378 624q62 -1 113.5 -17t88.5 -47.5t57.5 -79.5t20.5 -112v-19q0 -65 -21 -113.5t-58.5 -80.5t-88.5 -48t-112 -17v-100h-51v100q-62 1 -114 17t-89 47.5t-57.5 79.5t-20.5 113v17q0 66 21 114.5t58.5 80.5t89 48t112.5 17v101h51v-101zM378 132q51 1 93 13.5t72 38.5
t46.5 67t16.5 99v19q0 109 -61.5 161t-166.5 53v-451zM327 582q-51 -1 -93.5 -13.5t-72.5 -38.5t-46.5 -67.5t-16.5 -99.5v-17q0 -55 16 -95t46 -66.5t72 -39.5t95 -14v451z" />
    <glyph glyph-name="uni0425" unicode="&#x425;" horiz-adv-x="529" 
d="M232 373l-181 342h58l160 -301l158 301h55l-182 -343l194 -372h-58l-173 332l-173 -332h-55z" />
    <glyph glyph-name="uni0426" unicode="&#x426;" horiz-adv-x="585" 
d="M443 43v672h52v-672h70v-173h-45l-4 130h-442v715h52v-672h317z" />
    <glyph glyph-name="uni0427" unicode="&#x427;" horiz-adv-x="559" 
d="M433 0v332q-6 -4 -19 -10.5t-32 -13t-45 -11t-57 -4.5q-216 0 -216 224v198h52v-198q0 -89 39.5 -135t124.5 -46q34 0 60 4.5t44.5 11t30.5 13.5t18 11v339h52v-715h-52z" />
    <glyph glyph-name="uni0428" unicode="&#x428;" horiz-adv-x="849" 
d="M398 43v672h52v-672h273v672h52v-715h-701v715h52v-672h272z" />
    <glyph glyph-name="uni0429" unicode="&#x429;" horiz-adv-x="865" 
d="M796 0h-73v43h122v-173h-45zM398 43v672h52v-672h273v672h52v-715h-701v715h52v-672h272z" />
    <glyph glyph-name="uni042A" unicode="&#x42a;" horiz-adv-x="588" 
d="M232 672h-207v43h207v-43zM233 715v-296h114q45 0 83 -11.5t65.5 -35.5t42.5 -60.5t15 -87.5v-33q0 -51 -15 -87.5t-42.5 -59.5t-65.5 -33.5t-84 -10.5h-165v715h52zM233 43h115q35 0 63.5 7.5t48.5 25t30.5 45.5t10.5 70v33q0 80 -40 116.5t-112 36.5h-116v-334z" />
    <glyph glyph-name="uni042B" unicode="&#x42b;" horiz-adv-x="670" 
d="M126 715v-296h114q45 0 83 -11.5t65.5 -35.5t42.5 -60.5t15 -87.5v-33q0 -51 -15 -87.5t-42.5 -59.5t-65.5 -33.5t-84 -10.5h-165v715h52zM126 43h115q35 0 63.5 7.5t48.5 25t30.5 45.5t10.5 70v33q0 80 -40 116.5t-112 36.5h-116v-334zM544 715h53v-715h-53v715z" />
    <glyph glyph-name="uni042C" unicode="&#x42c;" horiz-adv-x="481" 
d="M126 715v-296h114q45 0 83 -11.5t65.5 -35.5t42.5 -60.5t15 -87.5v-33q0 -51 -15 -87.5t-42.5 -59.5t-65.5 -33.5t-84 -10.5h-165v715h52zM126 43h115q35 0 63.5 7.5t48.5 25t30.5 45.5t10.5 70v33q0 80 -40 116.5t-112 36.5h-116v-334z" />
    <glyph glyph-name="uni042D" unicode="&#x42d;" horiz-adv-x="580" 
d="M281 -8q-50 0 -92 13t-74 40t-52.5 68t-25.5 97h49q9 -89 61.5 -131.5t132.5 -42.5q100 0 149.5 65.5t49.5 182.5v56h-284v45h284v53q0 115 -50.5 179t-144.5 64q-80 0 -128 -40t-60 -120h-52q6 51 26.5 88.5t52.5 63t73.5 38t88.5 12.5q58 0 104 -20t78 -56.5t49 -89.5
t17 -119v-155q0 -65 -16 -119t-48 -92t-79 -59t-109 -21z" />
    <glyph glyph-name="uni042E" unicode="&#x42e;" horiz-adv-x="825" 
d="M74 715h52v-333h137v53q0 63 19 116t52.5 91.5t81 59.5t104.5 21t104 -21t81 -59t52.5 -90.5t18.5 -115.5v-156q0 -63 -18.5 -116t-52.5 -91.5t-80.5 -60t-103.5 -21.5t-104.5 21.5t-81.5 59.5t-53 90.5t-19 115.5v59h-137v-338h-52v715zM521 36q46 0 83.5 18t64 50.5
t40.5 77.5t14 99v155q0 53 -14 97.5t-40.5 77t-64 50.5t-84.5 18q-48 0 -85.5 -17.5t-63.5 -49.5t-40 -77t-14 -99v-156q0 -55 14.5 -100t41.5 -77t64.5 -49.5t83.5 -17.5z" />
    <glyph glyph-name="uni042F" unicode="&#x42f;" horiz-adv-x="514" 
d="M389 0v334h-121l-183 -334h-56l186 338q-70 11 -113 52t-43 124v25q0 46 15 79.5t43 55t66 31.5t85 10h173v-715h-52zM389 673h-123q-72 0 -113.5 -30.5t-41.5 -103.5v-25q0 -74 40 -106t113 -32h125v297z" />
    <glyph glyph-name="uni0430" unicode="&#x430;" horiz-adv-x="444" 
d="M190 -7q-71 0 -112 36.5t-41 107.5v9q0 42 16 71t43.5 47t64.5 25.5t79 7.5h92v68q0 63 -25.5 92.5t-83.5 29.5q-51 0 -82 -25t-35 -76h-50q2 37 16 64t37 45t52.5 26.5t63.5 8.5q73 0 115 -39t42 -126v-365h-50v70q-20 -35 -53.5 -56t-88.5 -21zM196 33q61 0 98.5 32.5
t37.5 87.5v106h-91q-34 0 -62.5 -5.5t-48.5 -18.5t-31.5 -35t-11.5 -54v-8q-1 -51 26 -78t83 -27z" />
    <glyph glyph-name="uni0431" unicode="&#x431;" horiz-adv-x="487" 
d="M40 356q0 104 11.5 176.5t38 118t71 67.5t110.5 24l41 1q43 2 69.5 8t43.5 12v-46q-16 -8 -43 -13t-69 -7l-40 -2q-54 -2 -89 -18.5t-56 -49t-30 -82t-12 -116.5h3q19 47 60 74t102 27q44 0 80 -15.5t61.5 -44t39.5 -68t14 -88.5v-104q0 -50 -15 -90t-42 -68.5
t-64.5 -43.5t-82.5 -15q-44 0 -81 15.5t-64 44t-42 68.5t-15 88v147zM243 35q69 0 111 46.5t42 127.5v104q0 82 -42 128.5t-110 46.5q-34 0 -62.5 -12t-48.5 -35t-31.5 -55.5t-11.5 -72.5v-104q0 -81 42 -127.5t111 -46.5z" />
    <glyph glyph-name="uni0432" unicode="&#x432;" horiz-adv-x="457" 
d="M66 523h159q35 0 65 -7.5t52 -23t34.5 -40.5t12.5 -61v-3q0 -43 -22.5 -73t-64.5 -40q53 -9 83 -39t30 -84v-3q0 -75 -45.5 -112t-127.5 -37h-176v523zM115 481v-189h111q113 0 113 94v3q0 50 -30 71t-84 21h-110zM115 251v-209h123q127 0 127 104v3q0 52 -33.5 77
t-98.5 25h-118z" />
    <glyph glyph-name="uni0433" unicode="&#x433;" horiz-adv-x="384" 
d="M357 479h-240v-479h-51v523h291v-44z" />
    <glyph glyph-name="uni0434" unicode="&#x434;" horiz-adv-x="495" 
d="M8 43h45q22 23 31.5 67.5t14.5 104.5q5 47 8 101t5 100q3 54 5 107h295v-480h65v-170h-41l-4 127h-379l-4 -127h-41v170zM145 211q-4 -57 -13.5 -100.5t-26.5 -67.5h256v437h-200q-1 -14 -2.5 -43t-3.5 -66.5t-4.5 -79t-5.5 -80.5z" />
    <glyph glyph-name="uni0435" unicode="&#x435;" horiz-adv-x="460" 
d="M240 -7q-95 0 -147.5 58.5t-52.5 158.5v103q0 49 14 89t39.5 68.5t61.5 44t80 15.5q41 0 75.5 -13t59 -39t38.5 -65.5t14 -92.5v-62h-331v-48q0 -83 37 -129t112 -46q57 0 90.5 26.5t40.5 79.5h49q-8 -74 -56 -111t-124 -37zM91 299h280v28q0 84 -36.5 122.5t-99.5 38.5
q-65 0 -104.5 -45t-39.5 -130v-14z" />
    <glyph glyph-name="uni0436" unicode="&#x436;" horiz-adv-x="629" 
d="M340 275l203 248h57l-205 -246l220 -277h-60zM290 523h49v-523h-49v523zM15 0l219 277l-204 246h56l203 -248l-215 -275h-59z" />
    <glyph glyph-name="uni0437" unicode="&#x437;" horiz-adv-x="431" 
d="M391 146q0 -72 -45.5 -113t-130.5 -41q-84 0 -131.5 41t-50.5 113h48q4 -51 36 -81t98 -30q63 0 94 28.5t31 82.5v5q0 48 -28.5 74.5t-91.5 26.5h-55v42h51q58 0 82 27.5t24 69.5v5q0 42 -26.5 67.5t-81.5 25.5q-107 0 -119 -96h-47q7 72 53 105.5t113 33.5q71 0 115 -35
t44 -99v-5q0 -17 -4.5 -34.5t-15 -33.5t-28 -28.5t-42.5 -19.5q57 -12 82.5 -45.5t25.5 -80.5v-5v0z" />
    <glyph glyph-name="uni0438" unicode="&#x438;" horiz-adv-x="485" 
d="M370 451l-248 -451h-56v523h49v-453l249 453h56v-523h-50v451z" />
    <glyph glyph-name="uni0439" unicode="&#x439;" horiz-adv-x="485" 
d="M370 451l-248 -451h-56v523h49v-453l249 453h56v-523h-50v451zM242 608q-44 0 -74 29.5t-32 81.5h39q4 -35 20 -54.5t47 -19.5q32 0 48.5 19.5t21.5 54.5h39q-3 -52 -33.5 -81.5t-75.5 -29.5z" />
    <glyph glyph-name="uni043A" unicode="&#x43a;" horiz-adv-x="412" 
d="M116 276l212 247h57l-213 -245l225 -278h-59zM66 523h49v-523h-49v523z" />
    <glyph glyph-name="uni043B" unicode="&#x43b;" horiz-adv-x="478" 
d="M150 211q-3 -50 -9.5 -89.5t-19 -67.5t-32 -43t-47.5 -15q-14 0 -24 2l-8 2v46q3 -1 7 -2q10 -2 21 -2q19 0 31 13.5t19 36.5t11 55t6 68q3 47 4.5 101t2.5 100q1 54 2 107h299v-523h-50v480h-204q0 -14 -0.5 -43t-1.5 -66.5t-3 -79t-4 -80.5z" />
    <glyph glyph-name="uni043C" unicode="&#x43c;" horiz-adv-x="606" 
d="M112 471v-471h-46v523h75l162 -430l163 430h75v-523h-51v471l-179 -471h-20z" />
    <glyph glyph-name="uni043D" unicode="&#x43d;" horiz-adv-x="476" 
d="M361 250h-246v-250h-49v523h49v-231h246v231h49v-523h-49v250z" />
    <glyph glyph-name="uni043E" unicode="&#x43e;" horiz-adv-x="487" 
d="M243 -7q-45 0 -82 15.5t-64 44t-42 68.5t-15 88v104q0 49 15.5 89t42.5 68t64.5 43.5t81.5 15.5t81.5 -15t64.5 -43t42 -68t15 -89v-104q0 -50 -15 -90t-42 -68t-64.5 -43.5t-82.5 -15.5zM243 35q69 0 111 46.5t42 127.5v104q0 82 -42 128t-110 46q-34 0 -62 -12
t-48.5 -34.5t-31.5 -55t-11 -72.5v-104q0 -80 41.5 -127t110.5 -47z" />
    <glyph glyph-name="uni043F" unicode="&#x43f;" horiz-adv-x="466" 
d="M351 480h-236v-480h-49v523h335v-523h-50v480z" />
    <glyph glyph-name="uni0440" unicode="&#x440;" horiz-adv-x="505" 
d="M116 523v-99q9 21 25 40t36.5 34t46 23.5t54.5 8.5q40 0 74.5 -14.5t59.5 -41.5t39 -66.5t14 -90.5v-109q0 -51 -14 -91t-39 -67.5t-60 -42t-76 -14.5q-32 0 -57.5 8.5t-45.5 22.5t-34 32.5t-23 38.5v-274h-50v702h50zM116 211q0 -85 43 -130.5t110 -45.5q66 0 105 44
t39 129v108q0 43 -11 75.5t-30.5 54t-46 32t-56.5 10.5q-31 0 -59 -12t-49 -34.5t-33 -55t-12 -74.5v-101z" />
    <glyph glyph-name="uni0441" unicode="&#x441;" horiz-adv-x="458" 
d="M241 -7q-44 0 -81 14.5t-63.5 42.5t-41.5 68t-15 91v104q0 50 15 90.5t42 68.5t63.5 43t79.5 15q36 0 67.5 -9.5t55.5 -29t39 -50t18 -71.5h-49q-5 62 -41.5 90t-89.5 28q-68 0 -108.5 -46t-40.5 -129v-104q0 -85 41 -129.5t109 -44.5q55 0 93.5 32t41.5 99h48
q-5 -83 -55 -128t-128 -45z" />
    <glyph glyph-name="uni0442" unicode="&#x442;" horiz-adv-x="422" 
d="M396 480h-160v-480h-50v480h-161v43h371v-43z" />
    <glyph glyph-name="uni0443" unicode="&#x443;" horiz-adv-x="427" 
d="M193 182l25 -77l24 77l113 341h52l-241 -702h-51l78 223l-171 479h53z" />
    <glyph glyph-name="uni0444" unicode="&#x444;" horiz-adv-x="598" 
d="M324 530q49 -2 92 -18.5t74.5 -47.5t49.5 -75.5t18 -102.5v-49q0 -58 -18 -103t-49.5 -76t-74.5 -47.5t-92 -17.5v-175h-49v175q-50 1 -92.5 17.5t-74.5 47.5t-50 75.5t-18 102.5v49q0 58 18.5 103.5t50 76t74.5 47t92 18.5v228h49v-228zM91 237q0 -50 14 -87.5t38.5 -63
t58.5 -39t73 -14.5v457q-39 -1 -73 -14.5t-58.5 -39.5t-38.5 -63.5t-14 -86.5v-49zM507 285q0 49 -14 87t-38.5 63.5t-58 39t-72.5 14.5v-456q39 1 72.5 14.5t58 39.5t38.5 63.5t14 86.5v48z" />
    <glyph glyph-name="uni0445" unicode="&#x445;" horiz-adv-x="425" 
d="M182 271l-149 252h56l124 -213l122 213h53l-148 -249l163 -274h-56l-136 234l-135 -234h-53z" />
    <glyph glyph-name="uni0446" unicode="&#x446;" horiz-adv-x="484" 
d="M425 -127l-5 127h-354v523h49v-480h236v480h50v-480h65v-170h-41z" />
    <glyph glyph-name="uni0447" unicode="&#x447;" horiz-adv-x="462" 
d="M347 523h49v-523h-49v235q-9 -7 -40.5 -19t-81.5 -12q-39 0 -70 10t-53.5 32t-34.5 56.5t-12 84.5v136h49v-134q0 -76 31.5 -109.5t94.5 -33.5q48 0 78 12.5t39 19.5v245z" />
    <glyph glyph-name="uni0448" unicode="&#x448;" horiz-adv-x="709" 
d="M643 523v-523h-577v523h49v-480h215v480h49v-480h215v480h49z" />
    <glyph glyph-name="uni0449" unicode="&#x449;" horiz-adv-x="726" 
d="M668 -127l-5 127h-69v43h115v-170h-41zM643 523v-523h-577v523h49v-480h215v480h49v-480h215v480h49z" />
    <glyph glyph-name="uni044A" unicode="&#x44a;" horiz-adv-x="507" 
d="M200 480h-175v43h175v-43zM151 523h49v-199h86q40 0 74 -10t59 -29.5t39 -50t14 -70.5v-3q0 -41 -14 -71.5t-39 -50.5t-59 -29.5t-74 -9.5h-135v523zM289 41q69 0 101.5 31.5t32.5 88.5v3q0 59 -34 89.5t-100 30.5h-89v-243h89z" />
    <glyph glyph-name="uni044B" unicode="&#x44b;" horiz-adv-x="577" 
d="M66 523h49v-199h86q40 0 74 -10t59 -29.5t39 -50t14 -70.5v-3q0 -41 -14 -71.5t-39 -50.5t-59 -29.5t-74 -9.5h-135v523zM204 41q69 0 101.5 31.5t32.5 88.5v3q0 59 -34 89.5t-100 30.5h-89v-243h89zM462 523h50v-523h-50v523z" />
    <glyph glyph-name="uni044C" unicode="&#x44c;" horiz-adv-x="422" 
d="M66 523h49v-199h86q40 0 74 -10t59 -29.5t39 -50t14 -70.5v-3q0 -41 -14 -71.5t-39 -50.5t-59 -29.5t-74 -9.5h-135v523zM204 41q69 0 101.5 31.5t32.5 88.5v3q0 59 -34 89.5t-100 30.5h-89v-243h89z" />
    <glyph glyph-name="uni044D" unicode="&#x44d;" horiz-adv-x="458" 
d="M220 -7q-79 0 -130 45t-55 128h46q4 -67 42.5 -99t96.5 -32q67 0 107.5 43.5t40.5 130.5v37h-193v43h193v24q0 85 -39 130t-103 45q-57 0 -94.5 -28t-44.5 -90h-49q4 41 19.5 71.5t40.5 50t57.5 29t70.5 9.5q42 0 77 -14.5t60.5 -42.5t40 -68t14.5 -92v-104
q0 -52 -14.5 -92t-41 -67.5t-63 -42t-79.5 -14.5z" />
    <glyph glyph-name="uni044E" unicode="&#x44e;" horiz-adv-x="663" 
d="M423 -7q-43 0 -79 15.5t-62.5 44t-41 68.5t-14.5 88v41h-111v-250h-49v523h49v-231h111v21q0 49 15 89t41.5 68.5t63 44t79.5 15.5t79 -15t62.5 -43.5t41 -68.5t14.5 -89v-104q0 -50 -15 -90t-41 -68.5t-63 -43.5t-80 -15zM424 35q67 0 107.5 46.5t40.5 127.5v104
q0 82 -40.5 128.5t-106.5 46.5t-107.5 -47t-41.5 -128v-104q0 -81 40.5 -127.5t107.5 -46.5z" />
    <glyph glyph-name="uni044F" unicode="&#x44f;" horiz-adv-x="446" 
d="M381 0h-50v218h-89h-16l-132 -218h-58l138 226q-51 14 -81 48.5t-30 91.5v3q0 39 13.5 68t38 48t58 28.5t73.5 9.5h135v-523zM243 481q-64 0 -96.5 -29.5t-32.5 -82.5v-3q0 -51 31.5 -79.5t97.5 -28.5h88v223h-88z" />
    <glyph glyph-name="uni0451" unicode="&#x451;" horiz-adv-x="460" 
d="M161 625q-14 0 -24 10t-10 24t10 24t24 10t24 -10t10 -24t-10 -24t-24 -10zM306 625q-14 0 -24 10t-10 24t10 24t24 10t24 -10t10 -24t-10 -24t-24 -10zM240 -7q-95 0 -147.5 58.5t-52.5 158.5v103q0 49 14 89t39.5 68.5t61.5 44t80 15.5q41 0 75.5 -13t59 -39
t38.5 -65.5t14 -92.5v-62h-331v-48q0 -83 37 -129t112 -46q57 0 90.5 26.5t40.5 79.5h49q-8 -74 -56 -111t-124 -37zM91 299h280v28q0 84 -36.5 122.5t-99.5 38.5q-65 0 -104.5 -45t-39.5 -130v-14z" />
    <glyph glyph-name="uni0453" unicode="&#x453;" horiz-adv-x="384" 
d="M357 479h-240v-479h-51v523h291v-44zM259 739h62l-82 -140h-39z" />
    <glyph glyph-name="uni045E" unicode="&#x45e;" horiz-adv-x="427" 
d="M193 182l25 -77l24 77l113 341h52l-241 -702h-51l78 223l-171 479h53zM216 608q-44 0 -74 29.5t-32 81.5h39q4 -35 20 -54.5t47 -19.5q32 0 48.5 19.5t21.5 54.5h39q-3 -52 -33.5 -81.5t-75.5 -29.5z" />
    <glyph glyph-name="uni0490" unicode="&#x490;" horiz-adv-x="436" 
d="M410 849v-177h-284v-672h-52v715h287l4 134h45z" />
    <glyph glyph-name="Wgrave" unicode="&#x1e80;" horiz-adv-x="759" 
d="M289 884h62l54 -116h-39zM28 715h53l115 -555l14 -74l16 74l135 555h41l131 -555l16 -76l14 76l119 555h49l-156 -715h-52l-128 542l-14 70l-15 -70l-135 -542h-51z" />
    <glyph glyph-name="wgrave" unicode="&#x1e81;" horiz-adv-x="648" 
d="M24 523h54l95 -395l15 -71l16 71l103 395h40l99 -395l16 -71l15 71l96 395h51l-134 -523h-59l-89 366l-16 74l-17 -74l-96 -366h-58zM232 739h62l59 -140h-39z" />
    <glyph glyph-name="Wacute" unicode="&#x1e82;" horiz-adv-x="759" 
d="M414 884h62l-77 -116h-40zM28 715h53l115 -555l14 -74l16 74l135 555h41l131 -555l16 -76l14 76l119 555h49l-156 -715h-52l-128 542l-14 70l-15 -70l-135 -542h-51z" />
    <glyph glyph-name="wacute" unicode="&#x1e83;" horiz-adv-x="648" 
d="M362 739h62l-82 -140h-39zM24 523h54l95 -395l15 -71l16 71l103 395h40l99 -395l16 -71l15 71l96 395h51l-134 -523h-59l-89 366l-16 74l-17 -74l-96 -366h-58z" />
    <glyph glyph-name="Wdieresis" unicode="&#x1e84;" horiz-adv-x="759" 
d="M301 783q-14 0 -23.5 9.5t-9.5 23.5t9.5 24t23.5 10t24 -10t10 -24t-10 -23.5t-24 -9.5zM459 783q-14 0 -24 9.5t-10 23.5t10 24t24 10t23.5 -10t9.5 -24t-9.5 -23.5t-23.5 -9.5zM28 715h53l115 -555l14 -74l16 74l135 555h41l131 -555l16 -76l14 76l119 555h49
l-156 -715h-52l-128 542l-14 70l-15 -70l-135 -542h-51z" />
    <glyph glyph-name="wdieresis" unicode="&#x1e85;" horiz-adv-x="648" 
d="M255 625q-14 0 -24 10t-10 24t10 24t24 10t24 -10t10 -24t-10 -24t-24 -10zM400 625q-14 0 -24 10t-10 24t10 24t24 10t24 -10t10 -24t-10 -24t-24 -10zM24 523h54l95 -395l15 -71l16 71l103 395h40l99 -395l16 -71l15 71l96 395h51l-134 -523h-59l-89 366l-16 74
l-17 -74l-96 -366h-58z" />
    <glyph glyph-name="Ygrave" unicode="&#x1ef2;" horiz-adv-x="480" 
d="M218 316l-199 399h58l169 -346l161 346h53l-188 -400v-315h-54v316zM155 884h62l54 -116h-39z" />
    <glyph glyph-name="ygrave" unicode="&#x1ef3;" horiz-adv-x="427" 
d="M193 182l25 -77l24 77l113 341h52l-241 -702h-51l78 223l-171 479h53zM119 739h62l59 -140h-39z" />
    <glyph glyph-name="endash" unicode="&#x2013;" horiz-adv-x="471" 
d="M40 299h391v-42h-391v42z" />
    <glyph glyph-name="_043" 
d="M104 739h62l59 -140h-39z" />
    <glyph glyph-name="_071" 
d="M128 625q-14 0 -24 10t-10 24t10 24t24 10t24 -10t10 -24t-10 -24t-24 -10zM273 625q-14 0 -24 10t-10 24t10 24t24 10t24 -10t10 -24t-10 -24t-24 -10z" />
    <glyph glyph-name="_072" 
d="M94 675h212v-40h-212v40z" />
    <glyph glyph-name="_073" 
d="M233 739h62l-82 -140h-39z" />
    <glyph glyph-name="_074" 
d="M209 -198q-38 0 -62 19.5t-28 52.5h38q2 -18 15 -29t35 -11t34.5 12t12.5 30q0 22 -13 31t-31 9q-12 0 -20.5 -3t-12.5 -6l-21 19l42 74h35l-32 -57q17 4 34 1.5t30 -11t21 -23t8 -35.5q0 -36 -25 -54.5t-60 -18.5z" />
    <glyph glyph-name="_131" 
d="M176 729h48l93 -130h-41l-76 87l-77 -87h-40z" />
    <glyph glyph-name="_132" 
d="M83 735h41l76 -88l77 88h40l-93 -131h-48z" />
    <glyph glyph-name="_133" 
d="M199 608q-44 0 -74 30t-32 81h39q4 -32 20.5 -50t46.5 -18t48 18t22 50h40q-3 -51 -34 -81t-76 -30z" />
    <glyph glyph-name="_134" 
d="M200 624q-14 0 -24.5 10.5t-10.5 24.5t10.5 24.5t24.5 10.5t24.5 -10.5t10.5 -24.5t-10.5 -24.5t-24.5 -10.5z" />
    <glyph glyph-name="_135" 
d="M200 599q-36 0 -61 24.5t-25 59.5t25 59.5t61 24.5t61 -24.5t25 -59.5t-25 -59.5t-61 -24.5zM200 630q21 0 35.5 15.5t14.5 37.5t-14.5 37t-35.5 15t-35 -15t-14 -37t14 -37.5t35 -15.5z" />
    <glyph glyph-name="_136" 
d="M254 617q-15 0 -29.5 7t-27.5 16t-25 16t-23 7q-14 0 -24 -12.5t-14 -34.5h-37q5 43 25.5 66.5t49.5 23.5q15 0 29.5 -7t27.5 -15.5t25 -15.5t23 -7q14 0 24 12.5t14 34.5h36q-4 -43 -24.5 -67t-49.5 -24z" />
    <glyph glyph-name="_137" 
d="M160 739h56l-59 -140h-37zM276 739h57l-59 -140h-38z" />
    <glyph glyph-name="i001" horiz-adv-x="196" 
d="M92 625q-14 0 -24 10t-10 24t10 24.5t24 10.5q15 0 25 -10.5t10 -24.5t-10 -24t-25 -10zM68 523h50v-523h-50v523z" />
    <glyph glyph-name="_242" 
d="M149 -174l46 134l50 -12l-63 -135z" />
    <glyph glyph-name="_243" 
d="M109 884h62l54 -116h-39z" />
    <glyph glyph-name="_244" 
d="M121 783q-14 0 -23.5 9.5t-9.5 23.5t9.5 24t23.5 10t24 -10t10 -24t-10 -23.5t-24 -9.5zM279 783q-14 0 -24 9.5t-10 23.5t10 24t24 10t23.5 -10t9.5 -24t-9.5 -23.5t-23.5 -9.5z" />
    <glyph glyph-name="_245" 
d="M91 827h218v-41h-218v41z" />
    <glyph glyph-name="_246" 
d="M229 884h62l-77 -116h-40z" />
    <glyph glyph-name="_247" 
d="M177 883h48l92 -115h-39l-78 73l-79 -73h-38z" />
    <glyph glyph-name="_248" 
d="M82 883h40l78 -74l79 74h39l-95 -115h-48z" />
    <glyph glyph-name="_249" 
d="M199 767q-45 0 -76 30t-34 79h40q4 -30 22 -48.5t48 -18.5q31 0 50 18.5t23 48.5h40q-3 -49 -35.5 -79t-77.5 -30z" />
    <glyph glyph-name="_250" 
d="M200 782q-14 0 -24.5 10t-10.5 24q0 15 10.5 25.5t24.5 10.5t24.5 -10.5t10.5 -25.5q0 -14 -10.5 -24t-24.5 -10z" />
    <glyph glyph-name="_251" 
d="M200 752q-36 0 -61 24.5t-25 59.5t25 59.5t61 24.5t61 -24.5t25 -59.5t-25 -59.5t-61 -24.5zM200 784q22 0 36 14.5t14 37.5t-14 37.5t-36 14.5t-35.5 -14.5t-13.5 -37.5t13.5 -37.5t35.5 -14.5z" />
    <glyph glyph-name="_252" 
d="M255 770q-15 0 -29.5 7t-27.5 15t-25.5 15t-23.5 7q-15 0 -25 -12t-14 -33h-37q5 42 25.5 65t49.5 23q16 0 30 -7t27.5 -15t25.5 -15t23 -7q14 0 24.5 12t13.5 34h37q-5 -42 -25 -65.5t-49 -23.5z" />
    <glyph glyph-name="_253" 
d="M156 884h57l-56 -116h-37zM273 884h57l-56 -116h-38z" />
    <glyph glyph-name="_254" horiz-adv-x="271" 
d="M88 480h-67v43h67v104q0 72 34 105.5t91 33.5q28 0 43 -6v-43q-15 6 -39 6q-36 0 -57 -21.5t-21 -71.5v-107h117v-43h-117v-480h-51v480z" />
    <glyph glyph-name="_255" horiz-adv-x="505" 
d="M88 480h-67v43h67v97q0 71 34.5 104.5t93.5 33.5q27 0 45 -7v-42q-8 3 -19 5t-23 2q-37 0 -58.5 -22t-21.5 -72v-99h183v104q0 72 34 105.5t91 33.5q28 0 43 -6v-43q-14 6 -40 6q-36 0 -57 -21.5t-21 -71.5v-107h118v-43h-118v-480h-50v480h-183v-480h-51v480z" />
    <glyph glyph-name="_256" horiz-adv-x="417" 
d="M379 17q0 -49 -13.5 -87t-38 -64.5t-58.5 -40t-75 -13.5q-42 0 -73.5 12t-53.5 34t-34.5 51.5t-15.5 64.5h52q7 -56 37.5 -87t86.5 -31q63 0 99 40.5t36 120.5v16q0 73 -37.5 114t-120.5 41h-28v42h28q36 0 61.5 9.5t41.5 26.5t23.5 40t7.5 49v16q0 53 -26.5 85t-83.5 32
q-94 0 -111 -95h-50q4 36 18.5 62t36.5 43.5t49.5 25.5t58.5 8q75 0 117 -43t42 -118v-16q0 -53 -28 -93t-86 -51q66 -11 102 -56.5t36 -121.5v-16v0z" />
    <glyph glyph-name="_263" horiz-adv-x="487" 
d="M446 210q0 -50 -15 -90t-42 -68.5t-64.5 -43.5t-82.5 -15q-44 0 -81 15.5t-64 44t-42 68.5t-15 88v104q0 40 11.5 75t32 62t49 45t62.5 25q-65 20 -97 49.5t-32 75.5q0 51 33.5 79t98.5 28h98q44 0 73.5 1.5t49.5 6.5v-45q-17 -5 -46.5 -7.5t-77.5 -2.5h-101
q-46 0 -66 -17t-20 -44q0 -42 39.5 -65t108.5 -40q97 -24 143.5 -77t46.5 -148v-104zM243 35q69 0 111 46.5t42 127.5v104q0 82 -42 128.5t-110 46.5q-34 0 -62.5 -12t-48.5 -35t-31.5 -55.5t-11.5 -72.5v-104q0 -81 42 -127.5t111 -46.5z" />
    <glyph glyph-name="_271" horiz-adv-x="451" 
d="M50 591q0 85 42.5 132t126.5 47q83 0 125 -48.5t42 -123.5v-29q0 -56 -25.5 -98.5t-81.5 -62.5q64 -14 97.5 -57.5t33.5 -121.5v-27q0 -48 -13.5 -86.5t-37.5 -66t-58 -42.5t-75 -15q-48 0 -81.5 14.5t-54.5 40.5t-30.5 61.5t-9.5 77.5v405zM100 425h93q38 0 65 12t44 32
t25 46t8 54v29q0 26 -6.5 49.5t-20.5 41t-36 27.5t-53 10q-60 0 -89.5 -35t-29.5 -97v-169zM225 36q65 0 100 44.5t35 121.5v27q0 75 -38 114.5t-129 39.5h-93v-197q0 -33 6.5 -60.5t21.5 -47.5t39 -31t58 -11z" />
    <glyph glyph-name="_279" horiz-adv-x="663" 
d="M423 -7q-43 0 -79 15.5t-62.5 44t-41 68.5t-14.5 88v41h-111v-250h-49v763h49v-471h111v21q0 49 15 89t41.5 68.5t63 44t79.5 15.5t79 -15t62.5 -43.5t41 -68.5t14.5 -89v-104q0 -50 -15 -90t-41 -68.5t-63 -43.5t-80 -15zM424 35q67 0 107.5 46.5t40.5 127.5v104
q0 82 -40.5 128.5t-106.5 46.5t-107.5 -47t-41.5 -128v-104q0 -81 40.5 -127.5t107.5 -46.5z" />
    <glyph glyph-name="_280" 
d="M170 620l63 135l32 -14l-46 -133z" />
    <glyph glyph-name="_281" horiz-adv-x="434" 
d="M113 320q15 3 41 6t58 3q85 0 135.5 -40.5t50.5 -121.5v-3q0 -42 -14 -73.5t-37 -53.5t-54.5 -33t-65.5 -11q-77 0 -120 46t-43 131v353h49v-203zM113 170q0 -63 28.5 -100t85.5 -37q59 0 90 36t31 93v3q0 58 -33.5 90.5t-102.5 32.5q-32 0 -57.5 -3t-41.5 -6v-109z" />
    <glyph glyph-name="_282" horiz-adv-x="564" 
d="M50 -130h-45v173h55l187 672h66l192 -672h54v-173h-45l-4 130h-456zM109 43h344l-174 619z" />
    <glyph glyph-name="_283" horiz-adv-x="629" 
d="M290 763h49v-763h-49v763zM340 275l203 248h57l-205 -246l220 -277h-60zM15 0l219 277l-204 246h56l203 -248l-215 -275h-59z" />
    <glyph glyph-name="_284" horiz-adv-x="705" 
d="M378 647q62 -1 113.5 -17.5t88.5 -50t57.5 -83.5t20.5 -118v-38q0 -69 -21 -119.5t-58.5 -84.5t-88.5 -50.5t-112 -17.5v-78h-51v78q-62 1 -114 17.5t-89 50t-57.5 83.5t-20.5 118v36q0 69 21 120.5t58.5 85t89 50.5t112.5 18v78h51v-78zM378 110q51 1 93 14t72 40.5
t46.5 71t16.5 105.5v37q0 58 -16 101t-45.5 71t-72 41.5t-94.5 14.5v-496zM327 605q-51 -1 -93.5 -14t-72.5 -40.5t-46.5 -71.5t-16.5 -106v-36q0 -117 62 -172t167 -56v496z" />
    <glyph glyph-name="_290" horiz-adv-x="758" 
d="M699 -127l-4 127h-69v43h115v-170h-42zM675 0h-50v82q-15 -35 -50.5 -62t-88.5 -27q-50 0 -83.5 22.5t-47.5 74.5q-20 -46 -61 -71.5t-90 -25.5q-64 0 -103.5 39.5t-39.5 132.5v358h51v-360q0 -68 26 -97.5t77 -29.5q25 0 48 9t41 26.5t28.5 43t10.5 58.5v350h50v-360
q0 -69 26.5 -98t77.5 -29q25 0 48 9t41 26.5t28.5 43t10.5 58.5v350h50v-523z" />
    <glyph glyph-name="_291" horiz-adv-x="521" 
d="M200 480h-175v43h175v-43zM200 320q15 3 41 6t58 3q85 0 135.5 -40.5t50.5 -121.5v-3q0 -42 -14 -73.5t-37 -53.5t-54.5 -33t-65.5 -11q-77 0 -120 46t-43 131v353h49v-203zM200 170q0 -63 28.5 -100t85.5 -37q59 0 90 36t31 93v3q0 58 -33.5 90.5t-102.5 32.5
q-32 0 -57.5 -3t-41.5 -6v-109z" />
    <glyph glyph-name="V002" horiz-adv-x="524" 
d="M237.035 584.016l-159.98 -583.929h-49.9941l198.976 714.913h66.9912l202.976 -714.913h-51.9932l-163.98 583.929l-21.9971 88.9893z" />
    <glyph glyph-name="_317" 
d="M149 -173l46 133l50 -12l-63 -135z" />
    <glyph glyph-name="_319" horiz-adv-x="399" 
d="M193 -8q-77 0 -117.5 39t-40.5 103q0 34 10.5 58.5t30 42.5t47 31.5t62.5 24.5q33 11 55.5 21.5t36.5 23t20.5 28.5t6.5 38v1q0 40 -27 62.5t-74 22.5q-48 0 -75 -23t-31 -73h-49q2 36 15 62.5t33.5 43t47.5 24.5t59 8q31 0 58 -8.5t47 -24.5t31.5 -40t11.5 -55v-1
q0 -30 -9 -53t-27 -40.5t-46.5 -31.5t-67.5 -27q-62 -21 -89.5 -45t-27.5 -71v-1q0 -47 27.5 -72.5t82.5 -25.5q60 0 90 30t33 83h48q-2 -72 -46.5 -113.5t-125.5 -41.5z" />
    <glyph glyph-name="n003" horiz-adv-x="480" 
d="M66 523h50v-86q15 36 53.5 64.5t97.5 28.5q69 0 110.5 -41.5t41.5 -133.5v-355h-50v357q0 67 -29 98.5t-85 31.5q-28 0 -53.5 -9.5t-44.5 -27t-30 -43t-11 -57.5v-350h-50v523z" />
    <glyph glyph-name="m004" horiz-adv-x="741" 
d="M675.008 0.0634766h-49.9941v81.9902q-14.998 -34.9951 -50.4932 -61.9922q-35.4961 -26.9971 -88.4893 -26.9971q-49.9941 0 -83.4902 22.4971q-33.4961 22.498 -47.4941 74.4912q-19.9971 -45.9941 -60.9922 -71.4912t-89.9893 -25.4971q-63.9922 0 -103.487 39.4951
t-39.4951 132.484v357.956h50.9941v-359.956q0 -67.9912 25.9961 -97.4883q25.9971 -29.4961 76.9912 -29.4961q24.9971 0 47.9941 8.99902t40.9951 26.4961q17.9971 17.498 28.4961 42.9951t10.499 58.4932v349.957h49.9941v-359.956q0 -68.9912 26.4961 -97.9883
q26.4971 -28.9961 77.4902 -28.9961q24.9971 0 47.9941 8.99902q22.998 8.99902 40.9951 26.4961q17.998 17.498 28.4971 42.9951q10.498 25.4971 10.498 58.4932v349.957h49.9941v-522.937z" />
    <glyph glyph-name="g005" horiz-adv-x="502" 
d="M241 -184q-47 0 -81.5 11t-58 30t-37 44.5t-16.5 55.5h51q6 -46 40.5 -72.5t100.5 -26.5q68 0 108 35.5t40 115.5v102q-9 -20 -24 -38.5t-35 -33t-45.5 -23t-55.5 -8.5q-42 0 -76 14t-59 40t-38.5 64.5t-13.5 87.5v106q0 48 14.5 87t40 66t61 42t77.5 15q31 0 56 -8
t44 -22t32.5 -32t21.5 -37v92h51v-516q0 -50 -14.5 -86t-40.5 -59t-62.5 -34.5t-80.5 -11.5zM235 50q32 0 60 11.5t49 33t33 52.5t12 71v100q0 81 -40.5 125.5t-108.5 44.5q-67 0 -107.5 -43.5t-40.5 -124.5v-106q0 -82 40 -123t103 -41z" />
    <glyph glyph-name="k006" horiz-adv-x="412" 
d="M116 276v-276h-50v763h50v-487l213 247h57l-212 -245l224 -278h-60z" />
    <glyph glyph-name="u007" horiz-adv-x="477" 
d="M412 0h-51v84q-15 -37 -53.5 -64t-94.5 -27q-68 0 -109.5 39t-41.5 130v361h51v-359q0 -68 28 -97.5t84 -29.5q27 0 51.5 9t43 26t30 42.5t11.5 57.5v351h51v-523z" />
    <glyph glyph-name="_333" 
d="M199 608q-44 0 -74 29.5t-32 81.5h39q4 -35 20 -54.5t47 -19.5q32 0 48.5 19.5t21.5 54.5h39q-3 -52 -33.5 -81.5t-75.5 -29.5z" />
    <glyph glyph-name="_334" horiz-adv-x="494" 
d="M435 -127l-4 127h-69v43h114v-170h-41zM412 0h-51v84q-15 -37 -53.5 -64t-94.5 -27q-68 0 -109.5 39t-41.5 130v361h51v-359q0 -68 28 -97.5t84 -29.5q27 0 51.5 9t43 26t30 42.5t11.5 57.5v351h51v-523z" />
    <glyph glyph-name="uni043D008" horiz-adv-x="476" 
d="M361 250h-246v-250h-49v523h49v-231h246v231h49v-523h-49v250z" />
    <glyph glyph-name="_336" horiz-adv-x="477" 
d="M412 0h-51v84q-15 -37 -53.5 -64t-94.5 -27q-68 0 -109.5 39t-41.5 130v361h51v-359q0 -68 28 -97.5t84 -29.5q27 0 51.5 9t43 26t30 42.5t11.5 57.5v351h51v-523zM236 608q-44 0 -74 29.5t-32 81.5h39q4 -35 20 -54.5t47 -19.5q32 0 48.5 19.5t21.5 54.5h39
q-3 -52 -33.5 -81.5t-75.5 -29.5z" />
    <glyph glyph-name="uni0416009" horiz-adv-x="743" 
d="M344 715h52v-715h-52v715zM662 0l-266 367l256 348h58l-256 -343l269 -372h-61zM287 370l-257 345h59l255 -348l-266 -367h-58z" />
    <glyph glyph-name="v010" horiz-adv-x="429" 
d="M407.003 0.0634766h-52.9941l-123.984 409.95l-17.998 70.9912l-17.998 -70.9912l-120.985 -409.95h-51.9932l158.98 522.937h65.9922z" />
    <glyph glyph-name="K011" horiz-adv-x="497" 
d="M74 715h52v-715h-52v715zM416 0l-289 367l279 348h58l-279 -343l292 -372h-61z" />
    <glyph glyph-name="_353" 
d="M199 767q-44 0 -75 29.5t-34 79.5h40q4 -32 21 -52t48 -20q32 0 50 20t22 52h40q-3 -50 -35 -79.5t-77 -29.5z" />
    <glyph glyph-name="m012" horiz-adv-x="741" 
d="M66 523h50v-82q15 35 50.5 62t88.5 27q50 0 83.5 -22.5t47.5 -74.5q20 46 61 71.5t90 25.5q64 0 103.5 -39.5t39.5 -132.5v-358h-51v360q0 68 -26 97.5t-77 29.5q-25 0 -48 -9t-41 -26.5t-28.5 -43t-10.5 -58.5v-350h-50v360q0 69 -26.5 98t-77.5 29q-25 0 -48 -9
t-41 -26.5t-28.5 -43t-10.5 -58.5v-350h-50v523z" />
    <glyph glyph-name="uni0447013" horiz-adv-x="462" 
d="M347 523h49v-523h-49v235q-9 -7 -40.5 -19t-81.5 -12q-39 0 -70 10t-53.5 32t-34.5 56.5t-12 84.5v136h49v-134q0 -76 31.5 -109.5t94.5 -33.5q48 0 78 12.5t39 19.5v245z" />
    </font>
</defs>
</svg>
